<mxfile host="Electron" agent="Mozilla/5.0 (Windows NT 10.0; Win64; x64) AppleWebKit/537.36 (KHTML, like Gecko) draw.io/24.7.17 Chrome/128.0.6613.36 Electron/32.0.1 Safari/537.36" version="24.7.17">
  <diagram name="Page-1" id="dGgqecxT7cXPR3_WFMpN">
    <mxGraphModel dx="1676" dy="1479" grid="1" gridSize="10" guides="1" tooltips="1" connect="0" arrows="1" fold="1" page="0" pageScale="1" pageWidth="827" pageHeight="1169" math="0" shadow="0">
      <root>
        <mxCell id="0" />
        <mxCell id="1" parent="0" />
        <mxCell id="U46B-6vp6unZUhbUO82Z-4" value="" style="rounded=0;whiteSpace=wrap;html=1;fillColor=default;gradientColor=none;gradientDirection=north;strokeColor=none;" vertex="1" parent="1">
          <mxGeometry x="-100" y="-20" width="1610" height="1260" as="geometry" />
        </mxCell>
        <mxCell id="zRIL2eFRyF2cmr7uauDS-49" value="&lt;div style=&quot;font-size: 10px;&quot;&gt;&lt;font color=&quot;#878787&quot;&gt;&amp;nbsp; IGLib legacy assembly&lt;/font&gt;&lt;/div&gt;&lt;div style=&quot;font-size: 16px;&quot;&gt;&lt;span style=&quot;background-color: initial;&quot;&gt;&lt;font face=&quot;Times New Roman&quot; color=&quot;#0000ff&quot; style=&quot;font-size: 16px;&quot;&gt;&lt;b style=&quot;&quot;&gt;&lt;i style=&quot;&quot;&gt;&amp;nbsp; IGLib&lt;/i&gt;&lt;/b&gt;&lt;/font&gt;&lt;/span&gt;&lt;/div&gt;&lt;div style=&quot;&quot;&gt;&lt;font face=&quot;Times New Roman&quot; style=&quot;font-size: 12px;&quot;&gt;&amp;nbsp; Base library of the legacy IGLib&lt;/font&gt;&lt;/div&gt;" style="rounded=1;whiteSpace=wrap;html=1;align=left;verticalAlign=top;gradientColor=none;strokeWidth=2;fillColor=#D6E2F0;shadow=1;" parent="1" vertex="1">
          <mxGeometry x="510" y="610" width="170" height="60" as="geometry" />
        </mxCell>
        <mxCell id="zRIL2eFRyF2cmr7uauDS-50" value="&lt;div style=&quot;font-size: 10px;&quot;&gt;&lt;font color=&quot;#878787&quot;&gt;&amp;nbsp; IGLib legacy assembly&lt;/font&gt;&lt;/div&gt;&lt;div style=&quot;font-size: 16px;&quot;&gt;&lt;span style=&quot;background-color: initial;&quot;&gt;&lt;font face=&quot;Times New Roman&quot; color=&quot;#0000ff&quot; style=&quot;font-size: 16px;&quot;&gt;&lt;b style=&quot;&quot;&gt;&lt;i style=&quot;&quot;&gt;&amp;nbsp; IGLibExt&lt;/i&gt;&lt;/b&gt;&lt;/font&gt;&lt;/span&gt;&lt;/div&gt;&lt;div style=&quot;&quot;&gt;&lt;font face=&quot;Times New Roman&quot; style=&quot;font-size: 12px;&quot;&gt;&amp;nbsp; Extensions that do not fit to IGLib&lt;/font&gt;&lt;/div&gt;" style="rounded=1;whiteSpace=wrap;html=1;align=left;verticalAlign=top;gradientColor=none;strokeWidth=2;fillColor=#D6E2F0;shadow=1;" parent="1" vertex="1">
          <mxGeometry x="740" y="690" width="140" height="80" as="geometry" />
        </mxCell>
        <mxCell id="zRIL2eFRyF2cmr7uauDS-51" value="&lt;div style=&quot;font-size: 10px;&quot;&gt;&lt;font color=&quot;#999999&quot;&gt;&amp;nbsp; IGLib assembly&lt;/font&gt;&lt;/div&gt;&lt;div style=&quot;&quot;&gt;&lt;span style=&quot;background-color: initial;&quot;&gt;&lt;font size=&quot;1&quot; face=&quot;Times New Roman&quot; color=&quot;#0000ff&quot; style=&quot;&quot;&gt;&lt;b style=&quot;&quot;&gt;&lt;i style=&quot;font-size: 16px;&quot;&gt;&amp;nbsp; IGLibScripts&lt;/i&gt;&lt;/b&gt;&lt;/font&gt;&lt;/span&gt;&lt;/div&gt;&lt;div style=&quot;&quot;&gt;&lt;font face=&quot;Times New Roman&quot; style=&quot;font-size: 13px;&quot;&gt;&amp;nbsp; &lt;/font&gt;&lt;font face=&quot;Times New Roman&quot; style=&quot;font-size: 12px;&quot;&gt;Utility scripts (Git, etc.)&lt;/font&gt;&lt;/div&gt;" style="rounded=1;whiteSpace=wrap;html=1;align=left;verticalAlign=top;gradientColor=none;strokeWidth=2;fillColor=#FFFFCC;strokeColor=default;shadow=1;" parent="1" vertex="1">
          <mxGeometry x="210" y="470" width="170" height="60" as="geometry" />
        </mxCell>
        <mxCell id="zRIL2eFRyF2cmr7uauDS-53" value="&lt;div style=&quot;font-size: 10px;&quot;&gt;&lt;font color=&quot;#999999&quot;&gt;&amp;nbsp; IGLib assembly&lt;/font&gt;&lt;/div&gt;&lt;div style=&quot;&quot;&gt;&lt;span style=&quot;background-color: initial;&quot;&gt;&lt;font size=&quot;1&quot; face=&quot;Times New Roman&quot; color=&quot;#0000ff&quot; style=&quot;&quot;&gt;&lt;b style=&quot;&quot;&gt;&lt;i style=&quot;font-size: 16px;&quot;&gt;&amp;nbsp; IGLibCore&lt;/i&gt;&lt;/b&gt;&lt;/font&gt;&lt;/span&gt;&lt;/div&gt;&lt;div style=&quot;&quot;&gt;&lt;font face=&quot;Times New Roman&quot; style=&quot;font-size: 13px;&quot;&gt;&amp;nbsp; &lt;/font&gt;&lt;font face=&quot;Times New Roman&quot; style=&quot;font-size: 12px;&quot;&gt;Base library; common utilities&lt;/font&gt;&lt;/div&gt;" style="rounded=1;whiteSpace=wrap;html=1;align=left;verticalAlign=top;gradientColor=none;strokeWidth=2;fillColor=#FFFFCC;strokeColor=default;shadow=1;" parent="1" vertex="1">
          <mxGeometry x="400" y="410" width="170" height="60" as="geometry" />
        </mxCell>
        <mxCell id="zRIL2eFRyF2cmr7uauDS-55" value="&lt;div style=&quot;font-size: 10px;&quot;&gt;&lt;font color=&quot;#878787&quot;&gt;&amp;nbsp; IGLib legacy assembly&lt;/font&gt;&lt;/div&gt;&lt;div style=&quot;font-size: 16px;&quot;&gt;&lt;span style=&quot;background-color: initial;&quot;&gt;&lt;font face=&quot;Times New Roman&quot; color=&quot;#0000ff&quot; style=&quot;font-size: 16px;&quot;&gt;&lt;b style=&quot;&quot;&gt;&lt;i style=&quot;&quot;&gt;&amp;nbsp; IGForms&lt;/i&gt;&lt;/b&gt;&lt;/font&gt;&lt;/span&gt;&lt;/div&gt;&lt;div style=&quot;&quot;&gt;&lt;font face=&quot;Times New Roman&quot; style=&quot;font-size: 12px;&quot;&gt;&amp;nbsp; UI Library (Windows only)&lt;/font&gt;&lt;/div&gt;" style="rounded=1;whiteSpace=wrap;html=1;align=left;verticalAlign=top;gradientColor=none;strokeWidth=2;fillColor=#D6E2F0;shadow=1;" parent="1" vertex="1">
          <mxGeometry x="480" y="898" width="160" height="60" as="geometry" />
        </mxCell>
        <mxCell id="zRIL2eFRyF2cmr7uauDS-58" value="&lt;div style=&quot;text-align: justify; font-size: 10px;&quot;&gt;&lt;font color=&quot;#999999&quot;&gt;&amp;nbsp; External package&lt;/font&gt;&lt;/div&gt;&lt;div style=&quot;&quot;&gt;&lt;span style=&quot;background-color: initial;&quot;&gt;&lt;font size=&quot;1&quot; face=&quot;Times New Roman&quot; style=&quot;&quot;&gt;&lt;b style=&quot;&quot;&gt;&lt;i style=&quot;font-size: 16px;&quot;&gt;&lt;font color=&quot;#0000ff&quot;&gt;&amp;nbsp;&lt;/font&gt; &lt;/i&gt;&lt;/b&gt;&lt;/font&gt;&lt;/span&gt;&lt;span style=&quot;background-color: initial; font-size: 14px;&quot;&gt;&lt;font face=&quot;Times New Roman&quot;&gt;&lt;b style=&quot;&quot;&gt;&lt;i style=&quot;font-size: 12px;&quot;&gt;Microsoft.CodeAnalysis.CSharp&lt;/i&gt;&lt;/b&gt;&lt;/font&gt;&lt;/span&gt;&lt;/div&gt;&lt;div style=&quot;&quot;&gt;&lt;font face=&quot;Times New Roman&quot; style=&quot;font-size: 13px;&quot;&gt;&amp;nbsp; &lt;/font&gt;&lt;font face=&quot;Times New Roman&quot; style=&quot;font-size: 11px;&quot;&gt;Part of Roslyn Compiler Platform, a larger dependency&lt;/font&gt;&lt;/div&gt;" style="rounded=1;whiteSpace=wrap;html=1;align=left;verticalAlign=top;gradientColor=none;strokeWidth=2;fillColor=#F7F7F7;strokeColor=default;shadow=1;" parent="1" vertex="1">
          <mxGeometry x="950" y="130" width="180" height="80" as="geometry" />
        </mxCell>
        <mxCell id="zRIL2eFRyF2cmr7uauDS-59" value="&lt;div style=&quot;text-align: center; font-size: 10px;&quot;&gt;&lt;font color=&quot;#878787&quot;&gt;&amp;nbsp; IGLib legacy assembly&lt;/font&gt;&lt;/div&gt;&lt;div style=&quot;font-size: 16px;&quot;&gt;&lt;span style=&quot;background-color: initial;&quot;&gt;&lt;font face=&quot;Times New Roman&quot; color=&quot;#0000ff&quot; style=&quot;font-size: 16px;&quot;&gt;&lt;b style=&quot;&quot;&gt;&lt;i style=&quot;&quot;&gt;&amp;nbsp; IGLibNeural&lt;/i&gt;&lt;/b&gt;&lt;/font&gt;&lt;/span&gt;&lt;/div&gt;&lt;div style=&quot;&quot;&gt;&lt;font face=&quot;Times New Roman&quot; style=&quot;font-size: 12px;&quot;&gt;&amp;nbsp; Neural Networks Lilbrary&lt;/font&gt;&lt;/div&gt;" style="rounded=1;whiteSpace=wrap;html=1;align=left;verticalAlign=top;gradientColor=none;strokeWidth=2;fillColor=#D6E2F0;shadow=1;" parent="1" vertex="1">
          <mxGeometry x="930" y="740" width="160" height="60" as="geometry" />
        </mxCell>
        <mxCell id="zRIL2eFRyF2cmr7uauDS-60" value="&lt;div style=&quot;text-align: center; font-size: 10px;&quot;&gt;&lt;font color=&quot;#878787&quot;&gt;&amp;nbsp; IGLib legacy assembly&lt;/font&gt;&lt;/div&gt;&lt;div style=&quot;font-size: 16px;&quot;&gt;&lt;span style=&quot;background-color: initial;&quot;&gt;&lt;font face=&quot;Times New Roman&quot; color=&quot;#0000ff&quot; style=&quot;font-size: 16px;&quot;&gt;&lt;b style=&quot;&quot;&gt;&lt;i style=&quot;&quot;&gt;&amp;nbsp; IGLibNeuralExt&lt;/i&gt;&lt;/b&gt;&lt;/font&gt;&lt;/span&gt;&lt;/div&gt;&lt;div style=&quot;&quot;&gt;&lt;font face=&quot;Times New Roman&quot; style=&quot;font-size: 12px;&quot;&gt;&amp;nbsp; ANNs extended library&lt;/font&gt;&lt;/div&gt;" style="rounded=1;whiteSpace=wrap;html=1;align=left;verticalAlign=top;gradientColor=none;strokeWidth=2;fillColor=#D6E2F0;shadow=1;" parent="1" vertex="1">
          <mxGeometry x="900" y="840" width="160" height="60" as="geometry" />
        </mxCell>
        <mxCell id="zRIL2eFRyF2cmr7uauDS-61" value="&lt;div style=&quot;text-align: center; font-size: 10px;&quot;&gt;&lt;font color=&quot;#878787&quot;&gt;&amp;nbsp; IGLib legacy assembly&lt;/font&gt;&lt;/div&gt;&lt;div style=&quot;font-size: 16px;&quot;&gt;&lt;span style=&quot;background-color: initial;&quot;&gt;&lt;font face=&quot;Times New Roman&quot; color=&quot;#0000ff&quot; style=&quot;font-size: 16px;&quot;&gt;&lt;b style=&quot;&quot;&gt;&lt;i style=&quot;&quot;&gt;&amp;nbsp; IGLibPlot2D&lt;/i&gt;&lt;/b&gt;&lt;/font&gt;&lt;/span&gt;&lt;/div&gt;&lt;div style=&quot;&quot;&gt;&lt;font face=&quot;Times New Roman&quot; style=&quot;font-size: 12px;&quot;&gt;&amp;nbsp; 2D Charting library&lt;/font&gt;&lt;/div&gt;" style="rounded=1;whiteSpace=wrap;html=1;align=left;verticalAlign=top;gradientColor=none;strokeWidth=2;fillColor=#D6E2F0;shadow=1;" parent="1" vertex="1">
          <mxGeometry x="340" y="800" width="160" height="60" as="geometry" />
        </mxCell>
        <mxCell id="zRIL2eFRyF2cmr7uauDS-62" value="&lt;div style=&quot;text-align: center; font-size: 10px;&quot;&gt;&lt;font color=&quot;#878787&quot;&gt;&amp;nbsp; IGLib legacy assembly&lt;/font&gt;&lt;/div&gt;&lt;div style=&quot;font-size: 16px;&quot;&gt;&lt;span style=&quot;background-color: initial;&quot;&gt;&lt;font face=&quot;Times New Roman&quot; color=&quot;#0000ff&quot; style=&quot;font-size: 16px;&quot;&gt;&lt;b style=&quot;&quot;&gt;&lt;i style=&quot;&quot;&gt;&amp;nbsp; IGLibPlot3D&lt;/i&gt;&lt;/b&gt;&lt;/font&gt;&lt;/span&gt;&lt;/div&gt;&lt;div style=&quot;&quot;&gt;&lt;font face=&quot;Times New Roman&quot; style=&quot;font-size: 12px;&quot;&gt;&amp;nbsp; 3D plotting library&lt;/font&gt;&lt;/div&gt;" style="rounded=1;whiteSpace=wrap;html=1;align=left;verticalAlign=top;gradientColor=none;strokeWidth=2;fillColor=#D6E2F0;shadow=1;" parent="1" vertex="1">
          <mxGeometry x="230" y="710" width="160" height="60" as="geometry" />
        </mxCell>
        <mxCell id="zRIL2eFRyF2cmr7uauDS-65" value="&lt;div style=&quot;font-size: 10px;&quot;&gt;&lt;font color=&quot;#999999&quot;&gt;&amp;nbsp; IGLib assembly&lt;/font&gt;&lt;/div&gt;&lt;div style=&quot;&quot;&gt;&lt;span style=&quot;background-color: initial;&quot;&gt;&lt;font size=&quot;1&quot; face=&quot;Times New Roman&quot; color=&quot;#0000ff&quot; style=&quot;&quot;&gt;&lt;b style=&quot;&quot;&gt;&lt;i style=&quot;font-size: 16px;&quot;&gt;&amp;nbsp; IGLibScripting&lt;/i&gt;&lt;/b&gt;&lt;/font&gt;&lt;/span&gt;&lt;/div&gt;&lt;div style=&quot;&quot;&gt;&lt;font face=&quot;Times New Roman&quot; style=&quot;font-size: 13px;&quot;&gt;&amp;nbsp; &lt;/font&gt;&lt;font face=&quot;Times New Roman&quot; style=&quot;font-size: 12px;&quot;&gt;Scripting, command-line, interpreters&amp;nbsp;&lt;/font&gt;&lt;/div&gt;" style="rounded=1;whiteSpace=wrap;html=1;align=left;verticalAlign=top;gradientColor=none;strokeWidth=2;fillColor=#FFFFCC;strokeColor=default;shadow=1;" parent="1" vertex="1">
          <mxGeometry x="520" y="260" width="170" height="70" as="geometry" />
        </mxCell>
        <mxCell id="zRIL2eFRyF2cmr7uauDS-84" value="&lt;div style=&quot;font-size: 10px;&quot;&gt;&lt;font color=&quot;#999999&quot;&gt;&amp;nbsp; IGLib assembly&lt;/font&gt;&lt;/div&gt;&lt;div style=&quot;&quot;&gt;&lt;span style=&quot;background-color: initial;&quot;&gt;&lt;font size=&quot;1&quot; face=&quot;Times New Roman&quot; color=&quot;#0000ff&quot; style=&quot;&quot;&gt;&lt;b style=&quot;&quot;&gt;&lt;i style=&quot;font-size: 16px;&quot;&gt;&amp;nbsp; IGLibScriptingCs&lt;/i&gt;&lt;/b&gt;&lt;/font&gt;&lt;/span&gt;&lt;/div&gt;&lt;div style=&quot;&quot;&gt;&lt;font face=&quot;Times New Roman&quot; style=&quot;font-size: 13px;&quot;&gt;&amp;nbsp; &lt;/font&gt;&lt;font face=&quot;Times New Roman&quot; style=&quot;font-size: 12px;&quot;&gt;C# scripting, dynamic code compilation and execution&lt;/font&gt;&lt;/div&gt;" style="rounded=1;whiteSpace=wrap;html=1;align=left;verticalAlign=top;gradientColor=none;strokeWidth=2;fillColor=#FFFFCC;strokeColor=default;shadow=1;" parent="1" vertex="1">
          <mxGeometry x="630" y="135" width="150" height="70" as="geometry" />
        </mxCell>
        <mxCell id="zRIL2eFRyF2cmr7uauDS-91" value="" style="endArrow=blockThin;html=1;rounded=0;edgeStyle=orthogonalEdgeStyle;elbow=vertical;curved=1;strokeWidth=3;strokeColor=#00B85C;endFill=1;exitX=0;exitY=0.75;exitDx=0;exitDy=0;entryX=0.5;entryY=0;entryDx=0;entryDy=0;" parent="1" source="zRIL2eFRyF2cmr7uauDS-65" target="zRIL2eFRyF2cmr7uauDS-53" edge="1">
          <mxGeometry width="50" height="50" relative="1" as="geometry">
            <mxPoint x="516" y="169.6" as="sourcePoint" />
            <mxPoint x="320" y="170" as="targetPoint" />
            <Array as="points">
              <mxPoint x="485" y="313" />
            </Array>
          </mxGeometry>
        </mxCell>
        <mxCell id="zRIL2eFRyF2cmr7uauDS-92" value="" style="endArrow=blockThin;html=1;rounded=0;edgeStyle=orthogonalEdgeStyle;elbow=vertical;curved=1;strokeWidth=2;strokeColor=#CCCCCC;endFill=1;dashed=1;entryX=0.555;entryY=-0.052;entryDx=0;entryDy=0;exitX=0;exitY=0.25;exitDx=0;exitDy=0;entryPerimeter=0;" parent="1" source="zRIL2eFRyF2cmr7uauDS-53" target="zRIL2eFRyF2cmr7uauDS-51" edge="1">
          <mxGeometry width="50" height="50" relative="1" as="geometry">
            <mxPoint x="320" y="417" as="sourcePoint" />
            <mxPoint x="250" y="417" as="targetPoint" />
            <Array as="points">
              <mxPoint x="304" y="415" />
            </Array>
          </mxGeometry>
        </mxCell>
        <mxCell id="zRIL2eFRyF2cmr7uauDS-95" value="" style="endArrow=blockThin;html=1;rounded=0;edgeStyle=orthogonalEdgeStyle;elbow=vertical;curved=1;strokeWidth=2;strokeColor=#000000;endFill=1;exitX=0.5;exitY=0;exitDx=0;exitDy=0;entryX=0;entryY=0.5;entryDx=0;entryDy=0;" parent="1" source="zRIL2eFRyF2cmr7uauDS-59" target="zRIL2eFRyF2cmr7uauDS-104" edge="1">
          <mxGeometry width="50" height="50" relative="1" as="geometry">
            <mxPoint x="1090" y="730" as="sourcePoint" />
            <mxPoint x="1160" y="660" as="targetPoint" />
            <Array as="points">
              <mxPoint x="1010" y="650" />
            </Array>
          </mxGeometry>
        </mxCell>
        <mxCell id="zRIL2eFRyF2cmr7uauDS-97" value="" style="endArrow=blockThin;html=1;rounded=0;edgeStyle=orthogonalEdgeStyle;elbow=vertical;curved=1;strokeWidth=3;strokeColor=#00B85C;endFill=1;entryX=0.25;entryY=0;entryDx=0;entryDy=0;exitX=-0.001;exitY=0.642;exitDx=0;exitDy=0;exitPerimeter=0;" parent="1" source="zRIL2eFRyF2cmr7uauDS-84" target="zRIL2eFRyF2cmr7uauDS-65" edge="1">
          <mxGeometry width="50" height="50" relative="1" as="geometry">
            <mxPoint x="610" y="180" as="sourcePoint" />
            <mxPoint x="570" y="250" as="targetPoint" />
            <Array as="points">
              <mxPoint x="563" y="180" />
              <mxPoint x="563" y="260" />
            </Array>
          </mxGeometry>
        </mxCell>
        <mxCell id="zRIL2eFRyF2cmr7uauDS-98" value="" style="endArrow=blockThin;html=1;rounded=0;edgeStyle=orthogonalEdgeStyle;elbow=vertical;curved=1;strokeWidth=2;strokeColor=#CCCCCC;endFill=1;dashed=1;exitX=0;exitY=0.5;exitDx=0;exitDy=0;entryX=0.402;entryY=-0.034;entryDx=0;entryDy=0;entryPerimeter=0;" parent="1" source="zRIL2eFRyF2cmr7uauDS-65" target="zRIL2eFRyF2cmr7uauDS-51" edge="1">
          <mxGeometry width="50" height="50" relative="1" as="geometry">
            <mxPoint x="363" y="420" as="sourcePoint" />
            <mxPoint x="280" y="470" as="targetPoint" />
          </mxGeometry>
        </mxCell>
        <mxCell id="zRIL2eFRyF2cmr7uauDS-99" value="" style="endArrow=blockThin;html=1;rounded=0;edgeStyle=orthogonalEdgeStyle;elbow=vertical;curved=1;strokeWidth=2;strokeColor=#CCCCCC;endFill=1;dashed=1;exitX=0;exitY=0.25;exitDx=0;exitDy=0;entryX=0.118;entryY=0;entryDx=0;entryDy=0;entryPerimeter=0;" parent="1" source="zRIL2eFRyF2cmr7uauDS-84" target="zRIL2eFRyF2cmr7uauDS-51" edge="1">
          <mxGeometry width="50" height="50" relative="1" as="geometry">
            <mxPoint x="516.86" y="186.01999999999998" as="sourcePoint" />
            <mxPoint x="274.86" y="374.02" as="targetPoint" />
          </mxGeometry>
        </mxCell>
        <mxCell id="zRIL2eFRyF2cmr7uauDS-100" value="" style="endArrow=blockThin;html=1;rounded=0;edgeStyle=orthogonalEdgeStyle;elbow=vertical;curved=1;strokeWidth=2;strokeColor=#CCCCCC;endFill=1;dashed=1;entryX=0.831;entryY=1.001;entryDx=0;entryDy=0;entryPerimeter=0;exitX=0;exitY=0.25;exitDx=0;exitDy=0;" parent="1" source="zRIL2eFRyF2cmr7uauDS-49" target="zRIL2eFRyF2cmr7uauDS-51" edge="1">
          <mxGeometry width="50" height="50" relative="1" as="geometry">
            <mxPoint x="270" y="690" as="sourcePoint" />
            <mxPoint x="230" y="585" as="targetPoint" />
            <Array as="points">
              <mxPoint x="351" y="625" />
            </Array>
          </mxGeometry>
        </mxCell>
        <mxCell id="zRIL2eFRyF2cmr7uauDS-102" value="" style="endArrow=blockThin;html=1;rounded=0;edgeStyle=orthogonalEdgeStyle;elbow=vertical;curved=1;strokeWidth=3;strokeColor=#00B85C;endFill=1;exitX=0;exitY=0.5;exitDx=0;exitDy=0;entryX=0.75;entryY=1;entryDx=0;entryDy=0;" parent="1" source="zRIL2eFRyF2cmr7uauDS-50" target="zRIL2eFRyF2cmr7uauDS-49" edge="1">
          <mxGeometry width="50" height="50" relative="1" as="geometry">
            <mxPoint x="730" y="760" as="sourcePoint" />
            <mxPoint x="620" y="690" as="targetPoint" />
            <Array as="points">
              <mxPoint x="638" y="730" />
              <mxPoint x="638" y="670" />
            </Array>
          </mxGeometry>
        </mxCell>
        <mxCell id="zRIL2eFRyF2cmr7uauDS-103" value="&lt;div style=&quot;text-align: justify; font-size: 10px;&quot;&gt;&lt;font color=&quot;#999999&quot;&gt;&amp;nbsp; External package&lt;/font&gt;&lt;/div&gt;&lt;div style=&quot;&quot;&gt;&lt;span style=&quot;background-color: initial;&quot;&gt;&lt;font size=&quot;1&quot; face=&quot;Times New Roman&quot; style=&quot;&quot;&gt;&lt;b style=&quot;&quot;&gt;&lt;i style=&quot;font-size: 16px;&quot;&gt;&lt;font color=&quot;#0000ff&quot;&gt;&amp;nbsp;&lt;/font&gt; &lt;/i&gt;&lt;/b&gt;&lt;/font&gt;&lt;/span&gt;&lt;span style=&quot;background-color: initial; font-size: 14px;&quot;&gt;&lt;font face=&quot;Times New Roman&quot;&gt;&lt;b style=&quot;&quot;&gt;&lt;i style=&quot;font-size: 12px;&quot;&gt;Accord.NET&lt;/i&gt;&lt;/b&gt;&lt;/font&gt;&lt;/span&gt;&lt;/div&gt;&lt;div style=&quot;&quot;&gt;&lt;font face=&quot;Times New Roman&quot; style=&quot;font-size: 13px;&quot;&gt;&amp;nbsp; &lt;/font&gt;&lt;font face=&quot;Times New Roman&quot; style=&quot;font-size: 11px;&quot;&gt;Machine learning, neural networks, image processing; legacy&lt;/font&gt;&lt;/div&gt;" style="rounded=1;whiteSpace=wrap;html=1;align=left;verticalAlign=top;gradientColor=none;strokeWidth=2;fillColor=#F7F7F7;strokeColor=default;shadow=1;" parent="1" vertex="1">
          <mxGeometry x="1170" y="710" width="180" height="70" as="geometry" />
        </mxCell>
        <mxCell id="zRIL2eFRyF2cmr7uauDS-105" value="" style="endArrow=blockThin;html=1;rounded=0;edgeStyle=orthogonalEdgeStyle;elbow=vertical;curved=1;strokeWidth=3;strokeColor=#00B85C;endFill=1;entryX=0.532;entryY=0.982;entryDx=0;entryDy=0;entryPerimeter=0;exitX=0.02;exitY=0.067;exitDx=0;exitDy=0;exitPerimeter=0;" parent="1" source="zRIL2eFRyF2cmr7uauDS-60" target="zRIL2eFRyF2cmr7uauDS-49" edge="1">
          <mxGeometry width="50" height="50" relative="1" as="geometry">
            <mxPoint x="860" y="840" as="sourcePoint" />
            <mxPoint x="810" y="800" as="targetPoint" />
            <Array as="points">
              <mxPoint x="903" y="810" />
              <mxPoint x="600" y="810" />
            </Array>
          </mxGeometry>
        </mxCell>
        <mxCell id="zRIL2eFRyF2cmr7uauDS-106" value="" style="endArrow=blockThin;html=1;rounded=0;edgeStyle=orthogonalEdgeStyle;elbow=vertical;curved=1;strokeWidth=3;strokeColor=#00B85C;endFill=1;entryX=0.638;entryY=1.007;entryDx=0;entryDy=0;entryPerimeter=0;exitX=0.007;exitY=0.673;exitDx=0;exitDy=0;exitPerimeter=0;" parent="1" source="zRIL2eFRyF2cmr7uauDS-59" target="zRIL2eFRyF2cmr7uauDS-49" edge="1">
          <mxGeometry width="50" height="50" relative="1" as="geometry">
            <mxPoint x="940.36" y="884.08" as="sourcePoint" />
            <mxPoint x="600.36" y="710.08" as="targetPoint" />
            <Array as="points">
              <mxPoint x="910" y="780" />
              <mxPoint x="622" y="780" />
            </Array>
          </mxGeometry>
        </mxCell>
        <mxCell id="zRIL2eFRyF2cmr7uauDS-107" value="" style="endArrow=blockThin;html=1;rounded=0;edgeStyle=orthogonalEdgeStyle;elbow=vertical;curved=1;strokeWidth=3;strokeColor=#00B85C;endFill=1;entryX=0.25;entryY=1;entryDx=0;entryDy=0;exitX=0.434;exitY=-0.007;exitDx=0;exitDy=0;exitPerimeter=0;" parent="1" source="zRIL2eFRyF2cmr7uauDS-60" target="zRIL2eFRyF2cmr7uauDS-59" edge="1">
          <mxGeometry width="50" height="50" relative="1" as="geometry">
            <mxPoint x="1019.56" y="845" as="sourcePoint" />
            <mxPoint x="1019.52" y="815" as="targetPoint" />
            <Array as="points" />
          </mxGeometry>
        </mxCell>
        <mxCell id="zRIL2eFRyF2cmr7uauDS-110" value="" style="endArrow=blockThin;html=1;rounded=0;edgeStyle=orthogonalEdgeStyle;elbow=vertical;curved=1;strokeWidth=3;strokeColor=#00B85C;endFill=1;entryX=0.37;entryY=0.965;entryDx=0;entryDy=0;entryPerimeter=0;exitX=0;exitY=0.333;exitDx=0;exitDy=0;exitPerimeter=0;" parent="1" source="zRIL2eFRyF2cmr7uauDS-60" target="zRIL2eFRyF2cmr7uauDS-49" edge="1">
          <mxGeometry width="50" height="50" relative="1" as="geometry">
            <mxPoint x="880" y="860" as="sourcePoint" />
            <mxPoint x="580" y="680" as="targetPoint" />
            <Array as="points">
              <mxPoint x="573" y="860" />
            </Array>
          </mxGeometry>
        </mxCell>
        <mxCell id="zRIL2eFRyF2cmr7uauDS-111" value="&lt;div style=&quot;text-align: justify; font-size: 10px;&quot;&gt;&lt;font color=&quot;#999999&quot;&gt;&amp;nbsp; External package&lt;/font&gt;&lt;/div&gt;&lt;div style=&quot;&quot;&gt;&lt;span style=&quot;background-color: initial;&quot;&gt;&lt;font size=&quot;1&quot; face=&quot;Times New Roman&quot; style=&quot;&quot;&gt;&lt;b style=&quot;&quot;&gt;&lt;i style=&quot;font-size: 16px;&quot;&gt;&lt;font color=&quot;#0000ff&quot;&gt;&amp;nbsp;&lt;/font&gt; &lt;/i&gt;&lt;/b&gt;&lt;/font&gt;&lt;/span&gt;&lt;span style=&quot;background-color: initial; font-size: 14px;&quot;&gt;&lt;font face=&quot;Times New Roman&quot;&gt;&lt;b style=&quot;&quot;&gt;&lt;i style=&quot;font-size: 12px;&quot;&gt;Windows Forms&lt;/i&gt;&lt;/b&gt;&lt;/font&gt;&lt;/span&gt;&lt;/div&gt;&lt;div style=&quot;&quot;&gt;&lt;font face=&quot;Times New Roman&quot; style=&quot;font-size: 13px;&quot;&gt;&amp;nbsp; &lt;/font&gt;&lt;font face=&quot;Times New Roman&quot; style=&quot;font-size: 11px;&quot;&gt;UI Library, Windows only&lt;/font&gt;&lt;/div&gt;" style="rounded=1;whiteSpace=wrap;html=1;align=left;verticalAlign=top;gradientColor=none;strokeWidth=2;fillColor=#F7F7F7;strokeColor=default;shadow=1;" parent="1" vertex="1">
          <mxGeometry x="550" y="1050" width="150" height="60" as="geometry" />
        </mxCell>
        <mxCell id="zRIL2eFRyF2cmr7uauDS-113" value="" style="endArrow=blockThin;html=1;rounded=0;edgeStyle=orthogonalEdgeStyle;elbow=vertical;curved=1;strokeWidth=2;strokeColor=#000000;endFill=1;entryX=0.324;entryY=0.006;entryDx=0;entryDy=0;entryPerimeter=0;" parent="1" target="zRIL2eFRyF2cmr7uauDS-111" edge="1">
          <mxGeometry width="50" height="50" relative="1" as="geometry">
            <mxPoint x="599" y="960" as="sourcePoint" />
            <mxPoint x="599" y="1020" as="targetPoint" />
            <Array as="points">
              <mxPoint x="599" y="1006" />
              <mxPoint x="599" y="1006" />
            </Array>
          </mxGeometry>
        </mxCell>
        <mxCell id="zRIL2eFRyF2cmr7uauDS-114" value="" style="endArrow=blockThin;html=1;rounded=0;edgeStyle=orthogonalEdgeStyle;elbow=vertical;curved=1;strokeWidth=2;strokeColor=#000000;endFill=1;exitX=0.5;exitY=1;exitDx=0;exitDy=0;entryX=0;entryY=0.25;entryDx=0;entryDy=0;" parent="1" source="zRIL2eFRyF2cmr7uauDS-61" target="zRIL2eFRyF2cmr7uauDS-111" edge="1">
          <mxGeometry width="50" height="50" relative="1" as="geometry">
            <mxPoint x="440" y="880" as="sourcePoint" />
            <mxPoint x="520" y="1070" as="targetPoint" />
            <Array as="points">
              <mxPoint x="420" y="1065" />
            </Array>
          </mxGeometry>
        </mxCell>
        <mxCell id="zRIL2eFRyF2cmr7uauDS-118" value="" style="endArrow=blockThin;html=1;rounded=0;edgeStyle=orthogonalEdgeStyle;elbow=vertical;curved=1;strokeWidth=3;strokeColor=#00B85C;endFill=1;entryX=0;entryY=0.5;entryDx=0;entryDy=0;exitX=0.5;exitY=0;exitDx=0;exitDy=0;" parent="1" source="zRIL2eFRyF2cmr7uauDS-62" target="zRIL2eFRyF2cmr7uauDS-49" edge="1">
          <mxGeometry width="50" height="50" relative="1" as="geometry">
            <mxPoint x="390" y="660" as="sourcePoint" />
            <mxPoint x="391" y="540" as="targetPoint" />
            <Array as="points">
              <mxPoint x="310" y="640" />
            </Array>
          </mxGeometry>
        </mxCell>
        <mxCell id="zRIL2eFRyF2cmr7uauDS-119" value="" style="endArrow=blockThin;html=1;rounded=0;edgeStyle=orthogonalEdgeStyle;elbow=vertical;curved=1;strokeWidth=3;strokeColor=#00B85C;endFill=1;entryX=-0.016;entryY=0.764;entryDx=0;entryDy=0;entryPerimeter=0;exitX=0.5;exitY=0;exitDx=0;exitDy=0;" parent="1" source="zRIL2eFRyF2cmr7uauDS-61" target="zRIL2eFRyF2cmr7uauDS-49" edge="1">
          <mxGeometry width="50" height="50" relative="1" as="geometry">
            <mxPoint x="430" y="780" as="sourcePoint" />
            <mxPoint x="560" y="720" as="targetPoint" />
            <Array as="points">
              <mxPoint x="420" y="656" />
            </Array>
          </mxGeometry>
        </mxCell>
        <mxCell id="zRIL2eFRyF2cmr7uauDS-123" value="" style="endArrow=blockThin;html=1;rounded=0;edgeStyle=orthogonalEdgeStyle;elbow=vertical;curved=1;strokeWidth=2;strokeColor=#000000;endFill=1;entryX=-0.001;entryY=0.506;entryDx=0;entryDy=0;entryPerimeter=0;exitX=1.009;exitY=0.498;exitDx=0;exitDy=0;exitPerimeter=0;" parent="1" source="zRIL2eFRyF2cmr7uauDS-84" target="zRIL2eFRyF2cmr7uauDS-58" edge="1">
          <mxGeometry width="50" height="50" relative="1" as="geometry">
            <mxPoint x="791" y="170" as="sourcePoint" />
            <mxPoint x="930" y="169.71" as="targetPoint" />
          </mxGeometry>
        </mxCell>
        <mxCell id="zRIL2eFRyF2cmr7uauDS-125" value="" style="endArrow=blockThin;html=1;rounded=0;edgeStyle=orthogonalEdgeStyle;elbow=vertical;curved=1;strokeWidth=3;strokeColor=#00B85C;endFill=1;exitX=0.313;exitY=0;exitDx=0;exitDy=0;exitPerimeter=0;" parent="1" source="zRIL2eFRyF2cmr7uauDS-55" edge="1">
          <mxGeometry width="50" height="50" relative="1" as="geometry">
            <mxPoint x="530" y="870" as="sourcePoint" />
            <mxPoint x="530" y="670" as="targetPoint" />
            <Array as="points" />
          </mxGeometry>
        </mxCell>
        <mxCell id="zRIL2eFRyF2cmr7uauDS-126" value="&lt;div style=&quot;text-align: justify; font-size: 10px;&quot;&gt;&lt;font color=&quot;#999999&quot;&gt;&amp;nbsp; External package&lt;/font&gt;&lt;/div&gt;&lt;div style=&quot;&quot;&gt;&lt;span style=&quot;background-color: initial;&quot;&gt;&lt;font size=&quot;1&quot; face=&quot;Times New Roman&quot; style=&quot;&quot;&gt;&lt;b style=&quot;&quot;&gt;&lt;i style=&quot;font-size: 16px;&quot;&gt;&lt;font color=&quot;#0000ff&quot;&gt;&amp;nbsp;&lt;/font&gt; &lt;/i&gt;&lt;/b&gt;&lt;/font&gt;&lt;/span&gt;&lt;span style=&quot;background-color: initial; font-size: 14px;&quot;&gt;&lt;font face=&quot;Times New Roman&quot;&gt;&lt;b style=&quot;&quot;&gt;&lt;i style=&quot;font-size: 12px;&quot;&gt;ActiViz&lt;/i&gt;&lt;/b&gt;&lt;/font&gt;&lt;/span&gt;&lt;/div&gt;&lt;div style=&quot;&quot;&gt;&lt;font face=&quot;Times New Roman&quot; style=&quot;font-size: 13px;&quot;&gt;&amp;nbsp; &lt;/font&gt;&lt;font face=&quot;Times New Roman&quot; style=&quot;font-size: 11px;&quot;&gt;.NET Wrapper of VTK (Visual Toolkit),&lt;/font&gt;&lt;/div&gt;&lt;div style=&quot;&quot;&gt;&lt;font face=&quot;Times New Roman&quot; style=&quot;font-size: 11px;&quot;&gt;&amp;nbsp;open source wrapper not supported&lt;/font&gt;&lt;/div&gt;" style="rounded=1;whiteSpace=wrap;html=1;align=left;verticalAlign=top;gradientColor=none;strokeWidth=2;fillColor=#F7F7F7;strokeColor=default;shadow=1;" parent="1" vertex="1">
          <mxGeometry x="-20" y="830" width="200" height="70" as="geometry" />
        </mxCell>
        <mxCell id="zRIL2eFRyF2cmr7uauDS-127" value="" style="endArrow=blockThin;html=1;rounded=0;edgeStyle=orthogonalEdgeStyle;elbow=vertical;curved=1;strokeWidth=2;strokeColor=#000000;endFill=1;entryX=0.685;entryY=-0.028;entryDx=0;entryDy=0;entryPerimeter=0;exitX=-0.007;exitY=0.673;exitDx=0;exitDy=0;exitPerimeter=0;" parent="1" source="zRIL2eFRyF2cmr7uauDS-62" target="zRIL2eFRyF2cmr7uauDS-126" edge="1">
          <mxGeometry width="50" height="50" relative="1" as="geometry">
            <mxPoint x="220" y="750" as="sourcePoint" />
            <mxPoint x="120" y="770" as="targetPoint" />
            <Array as="points">
              <mxPoint x="117" y="750" />
            </Array>
          </mxGeometry>
        </mxCell>
        <mxCell id="zRIL2eFRyF2cmr7uauDS-129" value="&lt;div style=&quot;font-size: 10px;&quot;&gt;&lt;font color=&quot;#000000&quot;&gt;&amp;nbsp; IGLib legacy application&lt;/font&gt;&lt;/div&gt;&lt;div style=&quot;&quot;&gt;&lt;span style=&quot;background-color: initial;&quot;&gt;&lt;font color=&quot;#ffff33&quot; size=&quot;1&quot; face=&quot;Times New Roman&quot; style=&quot;&quot;&gt;&lt;b style=&quot;&quot;&gt;&lt;i style=&quot;font-size: 16px;&quot;&gt;&amp;nbsp; NeurApp&lt;/i&gt;&lt;/b&gt;&lt;/font&gt;&lt;/span&gt;&lt;/div&gt;&lt;div style=&quot;&quot;&gt;&lt;font face=&quot;Times New Roman&quot; style=&quot;font-size: 13px;&quot;&gt;&amp;nbsp; &lt;/font&gt;&lt;font face=&quot;Times New Roman&quot; style=&quot;font-size: 12px;&quot;&gt;Exploring ANNs&lt;/font&gt;&lt;/div&gt;" style="rounded=1;whiteSpace=wrap;html=1;align=left;verticalAlign=top;strokeWidth=2;fillColor=#1ba1e2;strokeColor=#006EAF;shadow=1;fontColor=#ffffff;" parent="1" vertex="1">
          <mxGeometry x="1090" y="970" width="120" height="60" as="geometry" />
        </mxCell>
        <mxCell id="zRIL2eFRyF2cmr7uauDS-149" value="" style="endArrow=blockThin;html=1;rounded=0;edgeStyle=orthogonalEdgeStyle;elbow=vertical;curved=1;strokeWidth=3;strokeColor=#00B85C;endFill=1;exitX=0.118;exitY=0;exitDx=0;exitDy=0;exitPerimeter=0;entryX=0.765;entryY=1.009;entryDx=0;entryDy=0;entryPerimeter=0;" parent="1" source="zRIL2eFRyF2cmr7uauDS-49" target="zRIL2eFRyF2cmr7uauDS-53" edge="1">
          <mxGeometry width="50" height="50" relative="1" as="geometry">
            <mxPoint x="530.04" y="600.3600000000001" as="sourcePoint" />
            <mxPoint x="530" y="510" as="targetPoint" />
            <Array as="points" />
          </mxGeometry>
        </mxCell>
        <mxCell id="zRIL2eFRyF2cmr7uauDS-150" value="" style="endArrow=blockThin;html=1;rounded=0;edgeStyle=orthogonalEdgeStyle;elbow=vertical;curved=1;strokeWidth=2;strokeColor=#FFB366;endFill=1;entryX=1.008;entryY=0.681;entryDx=0;entryDy=0;entryPerimeter=0;shape=arrow;fillColor=#FFB366;" parent="1" edge="1">
          <mxGeometry width="50" height="50" relative="1" as="geometry">
            <mxPoint x="750" y="439" as="sourcePoint" />
            <mxPoint x="570.0000000000001" y="439.2899999999999" as="targetPoint" />
            <Array as="points" />
          </mxGeometry>
        </mxCell>
        <mxCell id="zRIL2eFRyF2cmr7uauDS-155" value="&lt;div style=&quot;font-size: 10px;&quot;&gt;&lt;font color=&quot;#000000&quot;&gt;&amp;nbsp; IGLib Application&lt;/font&gt;&lt;/div&gt;&lt;div style=&quot;&quot;&gt;&lt;span style=&quot;background-color: initial;&quot;&gt;&lt;font color=&quot;#ffff33&quot; size=&quot;1&quot; face=&quot;Times New Roman&quot; style=&quot;&quot;&gt;&lt;b style=&quot;&quot;&gt;&lt;i style=&quot;font-size: 16px;&quot;&gt;&amp;nbsp; AnnApp&lt;/i&gt;&lt;/b&gt;&lt;/font&gt;&lt;/span&gt;&lt;/div&gt;&lt;div style=&quot;&quot;&gt;&lt;font face=&quot;Times New Roman&quot; style=&quot;font-size: 13px;&quot;&gt;&amp;nbsp; &lt;/font&gt;&lt;font face=&quot;Times New Roman&quot; style=&quot;font-size: 12px;&quot;&gt;Exploring ANN models&lt;/font&gt;&lt;/div&gt;" style="rounded=1;whiteSpace=wrap;html=1;align=left;verticalAlign=top;strokeWidth=2;fillColor=#1ba1e2;strokeColor=#006EAF;shadow=1;fontColor=#ffffff;" parent="1" vertex="1">
          <mxGeometry x="890" y="990" width="120" height="70" as="geometry" />
        </mxCell>
        <mxCell id="zRIL2eFRyF2cmr7uauDS-156" value="&lt;div style=&quot;text-align: justify; font-size: 10px;&quot;&gt;&lt;font color=&quot;#999999&quot;&gt;&amp;nbsp; External package&lt;/font&gt;&lt;/div&gt;&lt;div style=&quot;&quot;&gt;&lt;span style=&quot;background-color: initial;&quot;&gt;&lt;font size=&quot;1&quot; face=&quot;Times New Roman&quot; style=&quot;&quot;&gt;&lt;b style=&quot;&quot;&gt;&lt;i style=&quot;font-size: 16px;&quot;&gt;&lt;font color=&quot;#0000ff&quot;&gt;&amp;nbsp;&lt;/font&gt; &lt;/i&gt;&lt;/b&gt;&lt;/font&gt;&lt;/span&gt;&lt;span style=&quot;background-color: initial; font-size: 14px;&quot;&gt;&lt;font face=&quot;Times New Roman&quot;&gt;&lt;b style=&quot;&quot;&gt;&lt;i style=&quot;font-size: 12px;&quot;&gt;Other ML, ANN, etc.&lt;/i&gt;&lt;/b&gt;&lt;/font&gt;&lt;/span&gt;&lt;/div&gt;&lt;div style=&quot;&quot;&gt;&lt;font face=&quot;Times New Roman&quot; style=&quot;font-size: 13px;&quot;&gt;&amp;nbsp; Other machine learning&lt;/font&gt;&lt;font face=&quot;Times New Roman&quot; style=&quot;font-size: 11px;&quot;&gt;, neural networks, numeric libraries&lt;/font&gt;&lt;/div&gt;" style="rounded=1;whiteSpace=wrap;html=1;align=left;verticalAlign=top;gradientColor=none;strokeWidth=2;fillColor=#F7F7F7;strokeColor=default;shadow=1;" parent="1" vertex="1">
          <mxGeometry x="1190" y="800" width="160" height="80" as="geometry" />
        </mxCell>
        <mxCell id="zRIL2eFRyF2cmr7uauDS-157" value="" style="endArrow=blockThin;html=1;rounded=0;edgeStyle=orthogonalEdgeStyle;elbow=vertical;curved=1;strokeWidth=2;strokeColor=#000000;endFill=1;exitX=1;exitY=0.5;exitDx=0;exitDy=0;entryX=0;entryY=0.5;entryDx=0;entryDy=0;" parent="1" source="zRIL2eFRyF2cmr7uauDS-60" target="zRIL2eFRyF2cmr7uauDS-156" edge="1">
          <mxGeometry width="50" height="50" relative="1" as="geometry">
            <mxPoint x="1050" y="855" as="sourcePoint" />
            <mxPoint x="1180" y="820" as="targetPoint" />
            <Array as="points">
              <mxPoint x="1120" y="870" />
              <mxPoint x="1120" y="840" />
            </Array>
          </mxGeometry>
        </mxCell>
        <mxCell id="zRIL2eFRyF2cmr7uauDS-158" value="" style="endArrow=blockThin;html=1;rounded=0;edgeStyle=orthogonalEdgeStyle;elbow=vertical;curved=1;strokeWidth=3;strokeColor=#3399FF;endFill=1;exitX=0.5;exitY=0;exitDx=0;exitDy=0;entryX=1.019;entryY=0.372;entryDx=0;entryDy=0;entryPerimeter=0;" parent="1" source="zRIL2eFRyF2cmr7uauDS-129" target="zRIL2eFRyF2cmr7uauDS-59" edge="1">
          <mxGeometry width="50" height="50" relative="1" as="geometry">
            <mxPoint x="1150" y="960" as="sourcePoint" />
            <mxPoint x="1150" y="800" as="targetPoint" />
            <Array as="points">
              <mxPoint x="1150" y="762" />
            </Array>
          </mxGeometry>
        </mxCell>
        <mxCell id="zRIL2eFRyF2cmr7uauDS-159" value="" style="endArrow=blockThin;html=1;rounded=0;edgeStyle=orthogonalEdgeStyle;elbow=vertical;curved=1;strokeWidth=2;strokeColor=#000000;endFill=1;exitX=1;exitY=0.25;exitDx=0;exitDy=0;entryX=0;entryY=0.5;entryDx=0;entryDy=0;" parent="1" source="zRIL2eFRyF2cmr7uauDS-60" target="zRIL2eFRyF2cmr7uauDS-103" edge="1">
          <mxGeometry width="50" height="50" relative="1" as="geometry">
            <mxPoint x="1070" y="845" as="sourcePoint" />
            <mxPoint x="1200" y="815" as="targetPoint" />
            <Array as="points">
              <mxPoint x="1110" y="855" />
              <mxPoint x="1110" y="745" />
            </Array>
          </mxGeometry>
        </mxCell>
        <mxCell id="zRIL2eFRyF2cmr7uauDS-160" value="" style="endArrow=blockThin;html=1;rounded=0;edgeStyle=orthogonalEdgeStyle;elbow=vertical;curved=1;strokeWidth=3;strokeColor=#3399FF;endFill=1;exitX=0.642;exitY=0;exitDx=0;exitDy=0;exitPerimeter=0;entryX=1;entryY=0.75;entryDx=0;entryDy=0;" parent="1" source="zRIL2eFRyF2cmr7uauDS-155" target="zRIL2eFRyF2cmr7uauDS-59" edge="1">
          <mxGeometry width="50" height="50" relative="1" as="geometry">
            <mxPoint x="966.96" y="977.71" as="sourcePoint" />
            <mxPoint x="1150" y="820" as="targetPoint" />
            <Array as="points">
              <mxPoint x="967" y="920" />
              <mxPoint x="1130" y="920" />
              <mxPoint x="1130" y="785" />
            </Array>
          </mxGeometry>
        </mxCell>
        <mxCell id="zRIL2eFRyF2cmr7uauDS-161" value="" style="endArrow=blockThin;html=1;rounded=0;edgeStyle=orthogonalEdgeStyle;elbow=vertical;curved=1;strokeWidth=3;strokeColor=#3399FF;endFill=1;entryX=0.25;entryY=1;entryDx=0;entryDy=0;exitX=0.41;exitY=0.001;exitDx=0;exitDy=0;exitPerimeter=0;" parent="1" source="zRIL2eFRyF2cmr7uauDS-155" target="zRIL2eFRyF2cmr7uauDS-60" edge="1">
          <mxGeometry width="50" height="50" relative="1" as="geometry">
            <mxPoint x="939.61" y="980" as="sourcePoint" />
            <mxPoint x="940.61" y="940" as="targetPoint" />
            <Array as="points" />
          </mxGeometry>
        </mxCell>
        <mxCell id="zRIL2eFRyF2cmr7uauDS-162" value="" style="endArrow=blockThin;html=1;rounded=0;edgeStyle=orthogonalEdgeStyle;elbow=vertical;curved=1;strokeWidth=3;strokeColor=#3399FF;endFill=1;entryX=1;entryY=0.75;entryDx=0;entryDy=0;exitX=0;exitY=0.25;exitDx=0;exitDy=0;" parent="1" source="zRIL2eFRyF2cmr7uauDS-155" target="zRIL2eFRyF2cmr7uauDS-55" edge="1">
          <mxGeometry width="50" height="50" relative="1" as="geometry">
            <mxPoint x="890" y="1020" as="sourcePoint" />
            <mxPoint x="620" y="970" as="targetPoint" />
            <Array as="points">
              <mxPoint x="730" y="1005" />
              <mxPoint x="730" y="943" />
            </Array>
          </mxGeometry>
        </mxCell>
        <mxCell id="zRIL2eFRyF2cmr7uauDS-163" value="" style="endArrow=blockThin;html=1;rounded=0;edgeStyle=orthogonalEdgeStyle;elbow=vertical;curved=1;strokeWidth=3;strokeColor=#3399FF;endFill=1;entryX=0.302;entryY=0.988;entryDx=0;entryDy=0;exitX=0.114;exitY=0.011;exitDx=0;exitDy=0;exitPerimeter=0;entryPerimeter=0;" parent="1" source="zRIL2eFRyF2cmr7uauDS-155" target="zRIL2eFRyF2cmr7uauDS-49" edge="1">
          <mxGeometry width="50" height="50" relative="1" as="geometry">
            <mxPoint x="870" y="940" as="sourcePoint" />
            <mxPoint x="620" y="850" as="targetPoint" />
            <Array as="points">
              <mxPoint x="904" y="880" />
              <mxPoint x="561" y="880" />
            </Array>
          </mxGeometry>
        </mxCell>
        <mxCell id="zRIL2eFRyF2cmr7uauDS-164" value="" style="endArrow=blockThin;html=1;rounded=0;edgeStyle=orthogonalEdgeStyle;elbow=vertical;curved=1;strokeWidth=3;strokeColor=#3399FF;endFill=1;exitX=-0.006;exitY=0.404;exitDx=0;exitDy=0;exitPerimeter=0;entryX=0.639;entryY=1.039;entryDx=0;entryDy=0;entryPerimeter=0;" parent="1" source="zRIL2eFRyF2cmr7uauDS-155" target="zRIL2eFRyF2cmr7uauDS-61" edge="1">
          <mxGeometry width="50" height="50" relative="1" as="geometry">
            <mxPoint x="880" y="1015" as="sourcePoint" />
            <mxPoint x="410" y="900" as="targetPoint" />
            <Array as="points">
              <mxPoint x="740" y="1014" />
              <mxPoint x="442" y="1014" />
            </Array>
          </mxGeometry>
        </mxCell>
        <mxCell id="zRIL2eFRyF2cmr7uauDS-165" value="" style="endArrow=blockThin;html=1;rounded=0;edgeStyle=orthogonalEdgeStyle;elbow=vertical;curved=1;strokeWidth=3;strokeColor=#3399FF;endFill=1;entryX=0.25;entryY=1;entryDx=0;entryDy=0;exitX=0.75;exitY=1;exitDx=0;exitDy=0;" parent="1" source="zRIL2eFRyF2cmr7uauDS-129" target="zRIL2eFRyF2cmr7uauDS-61" edge="1">
          <mxGeometry width="50" height="50" relative="1" as="geometry">
            <mxPoint x="680" y="1152.1" as="sourcePoint" />
            <mxPoint x="353" y="960.1" as="targetPoint" />
            <Array as="points">
              <mxPoint x="1180" y="1150" />
              <mxPoint x="380" y="1150" />
            </Array>
          </mxGeometry>
        </mxCell>
        <mxCell id="zRIL2eFRyF2cmr7uauDS-166" value="" style="endArrow=blockThin;html=1;rounded=0;edgeStyle=orthogonalEdgeStyle;elbow=vertical;curved=1;strokeWidth=3;strokeColor=#3399FF;endFill=1;entryX=0.403;entryY=0.995;entryDx=0;entryDy=0;entryPerimeter=0;exitX=0.25;exitY=1;exitDx=0;exitDy=0;" parent="1" source="zRIL2eFRyF2cmr7uauDS-129" target="zRIL2eFRyF2cmr7uauDS-61" edge="1">
          <mxGeometry width="50" height="50" relative="1" as="geometry">
            <mxPoint x="1077.05" y="1046.9" as="sourcePoint" />
            <mxPoint x="250.05" y="977" as="targetPoint" />
            <Array as="points">
              <mxPoint x="1120" y="1080" />
              <mxPoint x="760" y="1080" />
              <mxPoint x="760" y="990" />
              <mxPoint x="405" y="990" />
            </Array>
          </mxGeometry>
        </mxCell>
        <mxCell id="zRIL2eFRyF2cmr7uauDS-167" value="" style="endArrow=blockThin;html=1;rounded=0;edgeStyle=orthogonalEdgeStyle;elbow=vertical;curved=1;strokeWidth=3;strokeColor=#3399FF;endFill=1;exitX=0.411;exitY=0.982;exitDx=0;exitDy=0;entryX=1;entryY=0.5;entryDx=0;entryDy=0;exitPerimeter=0;" parent="1" source="zRIL2eFRyF2cmr7uauDS-129" target="zRIL2eFRyF2cmr7uauDS-55" edge="1">
          <mxGeometry width="50" height="50" relative="1" as="geometry">
            <mxPoint x="1145.52" y="1050.3" as="sourcePoint" />
            <mxPoint x="660" y="940" as="targetPoint" />
            <Array as="points">
              <mxPoint x="1139" y="1110" />
              <mxPoint x="800" y="1110" />
              <mxPoint x="800" y="928" />
            </Array>
          </mxGeometry>
        </mxCell>
        <mxCell id="zRIL2eFRyF2cmr7uauDS-168" value="" style="endArrow=blockThin;html=1;rounded=0;edgeStyle=orthogonalEdgeStyle;elbow=vertical;curved=1;strokeWidth=3;strokeColor=#3399FF;endFill=1;entryX=0.126;entryY=1.01;entryDx=0;entryDy=0;exitX=0.828;exitY=1.02;exitDx=0;exitDy=0;exitPerimeter=0;entryPerimeter=0;" parent="1" source="zRIL2eFRyF2cmr7uauDS-129" target="zRIL2eFRyF2cmr7uauDS-61" edge="1">
          <mxGeometry width="50" height="50" relative="1" as="geometry">
            <mxPoint x="1190" y="1089.58" as="sourcePoint" />
            <mxPoint x="371" y="919.58" as="targetPoint" />
            <Array as="points">
              <mxPoint x="1189" y="1170" />
              <mxPoint x="360" y="1170" />
            </Array>
          </mxGeometry>
        </mxCell>
        <mxCell id="zRIL2eFRyF2cmr7uauDS-171" value="&lt;div style=&quot;font-size: 10px;&quot;&gt;&lt;font color=&quot;#000000&quot;&gt;&amp;nbsp; IGLib legacy application&lt;/font&gt;&lt;/div&gt;&lt;div style=&quot;&quot;&gt;&lt;span style=&quot;background-color: initial;&quot;&gt;&lt;font color=&quot;#ffff33&quot; size=&quot;1&quot; face=&quot;Times New Roman&quot; style=&quot;&quot;&gt;&lt;b style=&quot;&quot;&gt;&lt;i style=&quot;font-size: 16px;&quot;&gt;&amp;nbsp; HashForm&lt;/i&gt;&lt;/b&gt;&lt;/font&gt;&lt;/span&gt;&lt;/div&gt;&lt;div style=&quot;&quot;&gt;&lt;font face=&quot;Times New Roman&quot; style=&quot;font-size: 13px;&quot;&gt;&amp;nbsp; &lt;/font&gt;&lt;font face=&quot;Times New Roman&quot; style=&quot;font-size: 12px;&quot;&gt;Cryptographic hash calculation&lt;/font&gt;&lt;/div&gt;" style="rounded=1;whiteSpace=wrap;html=1;align=left;verticalAlign=top;strokeWidth=2;fillColor=#1ba1e2;strokeColor=#006EAF;shadow=1;fontColor=#ffffff;" parent="1" vertex="1">
          <mxGeometry x="1370" y="525" width="120" height="75" as="geometry" />
        </mxCell>
        <mxCell id="zRIL2eFRyF2cmr7uauDS-172" value="&lt;div style=&quot;font-size: 10px;&quot;&gt;&lt;font color=&quot;#000000&quot;&gt;&amp;nbsp; IGLib legacy application&lt;/font&gt;&lt;/div&gt;&lt;div style=&quot;&quot;&gt;&lt;span style=&quot;background-color: initial;&quot;&gt;&lt;font color=&quot;#ffff33&quot; size=&quot;1&quot; face=&quot;Times New Roman&quot; style=&quot;&quot;&gt;&lt;b style=&quot;&quot;&gt;&lt;i style=&quot;font-size: 16px;&quot;&gt;&amp;nbsp; HashShell&lt;/i&gt;&lt;/b&gt;&lt;/font&gt;&lt;/span&gt;&lt;/div&gt;&lt;div style=&quot;&quot;&gt;&lt;font face=&quot;Times New Roman&quot; style=&quot;font-size: 13px;&quot;&gt;&amp;nbsp; &lt;/font&gt;&lt;font face=&quot;Times New Roman&quot; style=&quot;font-size: 12px;&quot;&gt;Cryptographic shell&lt;/font&gt;&lt;/div&gt;" style="rounded=1;whiteSpace=wrap;html=1;align=left;verticalAlign=top;strokeWidth=2;fillColor=#1ba1e2;strokeColor=#006EAF;shadow=1;fontColor=#ffffff;" parent="1" vertex="1">
          <mxGeometry x="1241" y="210" width="120" height="60" as="geometry" />
        </mxCell>
        <mxCell id="zRIL2eFRyF2cmr7uauDS-174" value="" style="endArrow=blockThin;html=1;rounded=0;edgeStyle=orthogonalEdgeStyle;elbow=vertical;curved=1;strokeWidth=3;strokeColor=#3399FF;endFill=1;entryX=0.204;entryY=0.436;entryDx=0;entryDy=0;entryPerimeter=0;exitX=0;exitY=0.5;exitDx=0;exitDy=0;" parent="1" source="zRIL2eFRyF2cmr7uauDS-172" target="zRIL2eFRyF2cmr7uauDS-142" edge="1">
          <mxGeometry width="50" height="50" relative="1" as="geometry">
            <mxPoint x="1240" y="230" as="sourcePoint" />
            <mxPoint x="689.9999999999997" y="380" as="targetPoint" />
            <Array as="points">
              <mxPoint x="1241" y="230" />
              <mxPoint x="830" y="230" />
            </Array>
          </mxGeometry>
        </mxCell>
        <mxCell id="zRIL2eFRyF2cmr7uauDS-176" value="" style="endArrow=blockThin;html=1;rounded=0;edgeStyle=orthogonalEdgeStyle;elbow=vertical;curved=1;strokeWidth=3;strokeColor=#3399FF;endFill=1;exitX=0.5;exitY=0;exitDx=0;exitDy=0;entryX=1;entryY=0.5;entryDx=0;entryDy=0;" parent="1" source="zRIL2eFRyF2cmr7uauDS-171" target="zRIL2eFRyF2cmr7uauDS-170" edge="1">
          <mxGeometry width="50" height="50" relative="1" as="geometry">
            <mxPoint x="1440" y="490" as="sourcePoint" />
            <mxPoint x="1290" y="490" as="targetPoint" />
            <Array as="points">
              <mxPoint x="1430" y="445" />
            </Array>
          </mxGeometry>
        </mxCell>
        <mxCell id="zRIL2eFRyF2cmr7uauDS-177" value="" style="endArrow=blockThin;html=1;rounded=0;edgeStyle=orthogonalEdgeStyle;elbow=vertical;curved=1;strokeWidth=3;strokeColor=#3399FF;endFill=1;exitX=0.5;exitY=1;exitDx=0;exitDy=0;entryX=0.064;entryY=1.004;entryDx=0;entryDy=0;entryPerimeter=0;" parent="1" source="zRIL2eFRyF2cmr7uauDS-171" target="zRIL2eFRyF2cmr7uauDS-55" edge="1">
          <mxGeometry width="50" height="50" relative="1" as="geometry">
            <mxPoint x="1410" y="660" as="sourcePoint" />
            <mxPoint x="490" y="970" as="targetPoint" />
            <Array as="points">
              <mxPoint x="1430" y="1210" />
              <mxPoint x="490" y="1210" />
              <mxPoint x="490" y="1130" />
            </Array>
          </mxGeometry>
        </mxCell>
        <mxCell id="zRIL2eFRyF2cmr7uauDS-178" value="&lt;div style=&quot;font-size: 10px;&quot;&gt;&lt;font color=&quot;#000000&quot;&gt;&amp;nbsp; IGLib legacy Application&lt;/font&gt;&lt;/div&gt;&lt;div style=&quot;&quot;&gt;&lt;span style=&quot;background-color: initial;&quot;&gt;&lt;font color=&quot;#ffff33&quot; size=&quot;1&quot; face=&quot;Times New Roman&quot; style=&quot;&quot;&gt;&lt;b style=&quot;&quot;&gt;&lt;i style=&quot;font-size: 16px;&quot;&gt;&amp;nbsp; IGShell&lt;/i&gt;&lt;/b&gt;&lt;/font&gt;&lt;/span&gt;&lt;/div&gt;&lt;div style=&quot;&quot;&gt;&lt;font face=&quot;Times New Roman&quot; style=&quot;font-size: 13px;&quot;&gt;&amp;nbsp; &lt;/font&gt;&lt;font face=&quot;Times New Roman&quot; style=&quot;font-size: 12px;&quot;&gt;Multipurpose extensible shell application, rapid develipment&lt;/font&gt;&lt;/div&gt;" style="rounded=1;whiteSpace=wrap;html=1;align=left;verticalAlign=top;strokeWidth=2;fillColor=#1ba1e2;strokeColor=#006EAF;shadow=1;fontColor=#ffffff;" parent="1" vertex="1">
          <mxGeometry x="180" y="1099" width="170" height="70" as="geometry" />
        </mxCell>
        <mxCell id="zRIL2eFRyF2cmr7uauDS-179" value="" style="endArrow=blockThin;html=1;rounded=0;edgeStyle=orthogonalEdgeStyle;elbow=vertical;curved=1;strokeWidth=3;strokeColor=#3399FF;endFill=1;entryX=0.846;entryY=0.998;entryDx=0;entryDy=0;exitX=0.206;exitY=-0.006;exitDx=0;exitDy=0;exitPerimeter=0;entryPerimeter=0;" parent="1" source="zRIL2eFRyF2cmr7uauDS-155" target="zRIL2eFRyF2cmr7uauDS-50" edge="1">
          <mxGeometry width="50" height="50" relative="1" as="geometry">
            <mxPoint x="870" y="975" as="sourcePoint" />
            <mxPoint x="871" y="885" as="targetPoint" />
            <Array as="points">
              <mxPoint x="910" y="990" />
              <mxPoint x="910" y="900" />
              <mxPoint x="870" y="900" />
              <mxPoint x="870" y="830" />
              <mxPoint x="858" y="830" />
            </Array>
          </mxGeometry>
        </mxCell>
        <mxCell id="zRIL2eFRyF2cmr7uauDS-180" value="" style="endArrow=blockThin;html=1;rounded=0;edgeStyle=orthogonalEdgeStyle;elbow=vertical;curved=1;strokeWidth=2;strokeColor=#000000;endFill=1;exitX=0;exitY=0.5;exitDx=0;exitDy=0;entryX=1;entryY=0.5;entryDx=0;entryDy=0;" parent="1" source="zRIL2eFRyF2cmr7uauDS-61" target="zRIL2eFRyF2cmr7uauDS-181" edge="1">
          <mxGeometry width="50" height="50" relative="1" as="geometry">
            <mxPoint x="267.94" y="883.54" as="sourcePoint" />
            <mxPoint x="199.94" y="976.54" as="targetPoint" />
            <Array as="points">
              <mxPoint x="270" y="830" />
              <mxPoint x="270" y="975" />
            </Array>
          </mxGeometry>
        </mxCell>
        <mxCell id="zRIL2eFRyF2cmr7uauDS-181" value="&lt;div style=&quot;text-align: justify; font-size: 10px;&quot;&gt;&lt;font color=&quot;#999999&quot;&gt;&amp;nbsp; External package&lt;/font&gt;&lt;/div&gt;&lt;div style=&quot;&quot;&gt;&lt;span style=&quot;background-color: initial;&quot;&gt;&lt;font size=&quot;1&quot; face=&quot;Times New Roman&quot; style=&quot;&quot;&gt;&lt;b style=&quot;&quot;&gt;&lt;i style=&quot;font-size: 16px;&quot;&gt;&lt;font color=&quot;#0000ff&quot;&gt;&amp;nbsp;&lt;/font&gt;&amp;nbsp;ZedGraph&lt;/i&gt;&lt;/b&gt;&lt;/font&gt;&lt;/span&gt;&lt;/div&gt;&lt;div style=&quot;&quot;&gt;&lt;font face=&quot;Times New Roman&quot; style=&quot;font-size: 13px;&quot;&gt;&amp;nbsp; &lt;/font&gt;&lt;font face=&quot;Times New Roman&quot; style=&quot;font-size: 11px;&quot;&gt;Interactive charting library; legact, out of support&lt;/font&gt;&lt;/div&gt;" style="rounded=1;whiteSpace=wrap;html=1;align=left;verticalAlign=top;gradientColor=none;strokeWidth=2;fillColor=#F7F7F7;strokeColor=default;shadow=1;" parent="1" vertex="1">
          <mxGeometry x="-20" y="940" width="150" height="70" as="geometry" />
        </mxCell>
        <mxCell id="zRIL2eFRyF2cmr7uauDS-182" value="" style="endArrow=blockThin;html=1;rounded=0;edgeStyle=orthogonalEdgeStyle;elbow=vertical;curved=1;strokeWidth=3;strokeColor=#3399FF;endFill=1;entryX=1;entryY=0.5;entryDx=0;entryDy=0;exitX=0;exitY=0;exitDx=0;exitDy=0;" parent="1" source="zRIL2eFRyF2cmr7uauDS-155" target="zRIL2eFRyF2cmr7uauDS-62" edge="1">
          <mxGeometry width="50" height="50" relative="1" as="geometry">
            <mxPoint x="862.68" y="991.72" as="sourcePoint" />
            <mxPoint x="519.68" y="669.72" as="targetPoint" />
            <Array as="points">
              <mxPoint x="890" y="890" />
              <mxPoint x="560" y="890" />
              <mxPoint x="560" y="740" />
            </Array>
          </mxGeometry>
        </mxCell>
        <mxCell id="zRIL2eFRyF2cmr7uauDS-183" value="" style="endArrow=blockThin;html=1;rounded=0;edgeStyle=orthogonalEdgeStyle;elbow=vertical;curved=1;strokeWidth=3;strokeColor=#3399FF;endFill=1;exitX=0.41;exitY=0.001;exitDx=0;exitDy=0;exitPerimeter=0;entryX=0;entryY=0;entryDx=0;entryDy=0;" parent="1" target="zRIL2eFRyF2cmr7uauDS-49" edge="1">
          <mxGeometry width="50" height="50" relative="1" as="geometry">
            <mxPoint x="200" y="1099" as="sourcePoint" />
            <mxPoint x="300" y="580" as="targetPoint" />
            <Array as="points">
              <mxPoint x="200" y="840" />
              <mxPoint x="201" y="840" />
              <mxPoint x="201" y="610" />
            </Array>
          </mxGeometry>
        </mxCell>
        <mxCell id="zRIL2eFRyF2cmr7uauDS-184" value="" style="endArrow=blockThin;html=1;rounded=0;edgeStyle=orthogonalEdgeStyle;elbow=vertical;curved=1;strokeWidth=3;strokeColor=#3399FF;endFill=1;entryX=0.062;entryY=1.023;entryDx=0;entryDy=0;exitX=0.348;exitY=-0.011;exitDx=0;exitDy=0;exitPerimeter=0;entryPerimeter=0;" parent="1" source="zRIL2eFRyF2cmr7uauDS-178" target="zRIL2eFRyF2cmr7uauDS-62" edge="1">
          <mxGeometry width="50" height="50" relative="1" as="geometry">
            <mxPoint x="240" y="1080" as="sourcePoint" />
            <mxPoint x="241" y="970" as="targetPoint" />
            <Array as="points" />
          </mxGeometry>
        </mxCell>
        <mxCell id="zRIL2eFRyF2cmr7uauDS-185" value="" style="endArrow=blockThin;html=1;rounded=0;edgeStyle=orthogonalEdgeStyle;elbow=vertical;curved=1;strokeWidth=3;strokeColor=#3399FF;endFill=1;entryX=0;entryY=0.75;entryDx=0;entryDy=0;" parent="1" target="zRIL2eFRyF2cmr7uauDS-61" edge="1">
          <mxGeometry width="50" height="50" relative="1" as="geometry">
            <mxPoint x="278" y="1098" as="sourcePoint" />
            <mxPoint x="300" y="870" as="targetPoint" />
            <Array as="points">
              <mxPoint x="278" y="845" />
            </Array>
          </mxGeometry>
        </mxCell>
        <mxCell id="zRIL2eFRyF2cmr7uauDS-204" value="" style="endArrow=blockThin;html=1;rounded=0;edgeStyle=orthogonalEdgeStyle;elbow=vertical;curved=1;strokeWidth=3;strokeColor=#3399FF;endFill=1;entryX=0.75;entryY=1;entryDx=0;entryDy=0;exitX=1;exitY=0.75;exitDx=0;exitDy=0;" parent="1" source="zRIL2eFRyF2cmr7uauDS-178" target="zRIL2eFRyF2cmr7uauDS-60" edge="1">
          <mxGeometry width="50" height="50" relative="1" as="geometry">
            <mxPoint x="720" y="1190" as="sourcePoint" />
            <mxPoint x="1020.81" y="910" as="targetPoint" />
            <Array as="points">
              <mxPoint x="350" y="1190" />
              <mxPoint x="1021" y="1190" />
              <mxPoint x="1021" y="1045" />
              <mxPoint x="1020" y="1045" />
            </Array>
          </mxGeometry>
        </mxCell>
        <mxCell id="zRIL2eFRyF2cmr7uauDS-205" value="" style="endArrow=blockThin;html=1;rounded=0;edgeStyle=orthogonalEdgeStyle;elbow=vertical;curved=1;strokeWidth=3;strokeColor=#3399FF;endFill=1;exitX=0.724;exitY=1.023;exitDx=0;exitDy=0;exitPerimeter=0;entryX=0.173;entryY=0.965;entryDx=0;entryDy=0;entryPerimeter=0;" parent="1" source="zRIL2eFRyF2cmr7uauDS-178" target="zRIL2eFRyF2cmr7uauDS-50" edge="1">
          <mxGeometry width="50" height="50" relative="1" as="geometry">
            <mxPoint x="320" y="1220" as="sourcePoint" />
            <mxPoint x="610" y="1220" as="targetPoint" />
            <Array as="points">
              <mxPoint x="303" y="1220" />
              <mxPoint x="760" y="1220" />
              <mxPoint x="760" y="900" />
              <mxPoint x="764" y="900" />
            </Array>
          </mxGeometry>
        </mxCell>
        <mxCell id="U46B-6vp6unZUhbUO82Z-2" value="&lt;b style=&quot;font-size: 20px;&quot;&gt;&lt;i style=&quot;&quot;&gt;&lt;font face=&quot;Helvetica&quot; color=&quot;#0000ff&quot; style=&quot;font-size: 20px;&quot;&gt;Investigative Generic Library (IGLib) with&amp;nbsp;&lt;/font&gt;&lt;/i&gt;&lt;/b&gt;&lt;b style=&quot;font-size: 20px; background-color: initial;&quot;&gt;&lt;i&gt;&lt;font face=&quot;Helvetica&quot; color=&quot;#0000ff&quot;&gt;Dependencies&lt;/font&gt;&lt;/i&gt;&lt;/b&gt;&lt;div style=&quot;font-size: 20px;&quot;&gt;&lt;div style=&quot;&quot;&gt;&lt;b style=&quot;&quot;&gt;&lt;i style=&quot;&quot;&gt;&lt;font face=&quot;Helvetica&quot; color=&quot;#0000ff&quot; style=&quot;font-size: 20px;&quot;&gt;and some applications (Simplified)&lt;/font&gt;&lt;/i&gt;&lt;/b&gt;&lt;/div&gt;&lt;/div&gt;" style="rounded=1;whiteSpace=wrap;html=1;align=left;verticalAlign=middle;strokeColor=#0000FF;shadow=1;" vertex="1" parent="1">
          <mxGeometry x="-80" width="550" height="70" as="geometry" />
        </mxCell>
        <mxCell id="U46B-6vp6unZUhbUO82Z-3" value="" style="group" vertex="1" connectable="0" parent="1">
          <mxGeometry x="-80" y="90" width="270" height="470" as="geometry" />
        </mxCell>
        <mxCell id="zRIL2eFRyF2cmr7uauDS-130" value="&lt;div style=&quot;&quot;&gt;&lt;span style=&quot;background-color: initial;&quot;&gt;&lt;font color=&quot;#b34618&quot; size=&quot;1&quot; face=&quot;Times New Roman&quot; style=&quot;&quot;&gt;&lt;b style=&quot;&quot;&gt;&lt;i style=&quot;font-size: 18px;&quot;&gt;&amp;nbsp; &amp;nbsp; Legend&lt;/i&gt;&lt;/b&gt;&lt;/font&gt;&lt;/span&gt;&lt;/div&gt;" style="shape=ext;double=1;rounded=1;whiteSpace=wrap;html=1;arcSize=8;align=left;verticalAlign=top;" parent="U46B-6vp6unZUhbUO82Z-3" vertex="1">
          <mxGeometry width="270" height="470" as="geometry" />
        </mxCell>
        <mxCell id="zRIL2eFRyF2cmr7uauDS-76" value="" style="endArrow=blockThin;html=1;rounded=0;edgeStyle=orthogonalEdgeStyle;elbow=vertical;curved=1;strokeWidth=3;strokeColor=#00B85C;endFill=1;" parent="U46B-6vp6unZUhbUO82Z-3" edge="1">
          <mxGeometry width="50" height="50" relative="1" as="geometry">
            <mxPoint x="9" y="380" as="sourcePoint" />
            <mxPoint x="110" y="380.4" as="targetPoint" />
            <Array as="points">
              <mxPoint x="49" y="380" />
              <mxPoint x="49" y="380" />
            </Array>
          </mxGeometry>
        </mxCell>
        <mxCell id="zRIL2eFRyF2cmr7uauDS-81" value="" style="endArrow=blockThin;html=1;rounded=0;edgeStyle=orthogonalEdgeStyle;elbow=vertical;curved=1;strokeWidth=2;strokeColor=#CCCCCC;endFill=1;dashed=1;" parent="U46B-6vp6unZUhbUO82Z-3" edge="1">
          <mxGeometry width="50" height="50" relative="1" as="geometry">
            <mxPoint x="10" y="420" as="sourcePoint" />
            <mxPoint x="110" y="420" as="targetPoint" />
            <Array as="points">
              <mxPoint x="70" y="420" />
              <mxPoint x="70" y="420" />
            </Array>
          </mxGeometry>
        </mxCell>
        <mxCell id="zRIL2eFRyF2cmr7uauDS-82" value="" style="endArrow=blockThin;html=1;rounded=0;edgeStyle=orthogonalEdgeStyle;elbow=vertical;curved=1;strokeWidth=2;strokeColor=#000000;exitX=1;exitY=0.5;exitDx=0;exitDy=0;endFill=1;" parent="U46B-6vp6unZUhbUO82Z-3" edge="1">
          <mxGeometry width="50" height="50" relative="1" as="geometry">
            <mxPoint x="10" y="400" as="sourcePoint" />
            <mxPoint x="110" y="400" as="targetPoint" />
          </mxGeometry>
        </mxCell>
        <mxCell id="zRIL2eFRyF2cmr7uauDS-67" value="&lt;div style=&quot;font-size: 10px;&quot;&gt;&lt;font color=&quot;#999999&quot;&gt;&amp;nbsp; IGLib assembly&lt;/font&gt;&lt;/div&gt;&lt;div style=&quot;&quot;&gt;&lt;span style=&quot;background-color: initial;&quot;&gt;&lt;font size=&quot;1&quot; face=&quot;Times New Roman&quot; color=&quot;#0000ff&quot; style=&quot;&quot;&gt;&lt;b style=&quot;&quot;&gt;&lt;i style=&quot;font-size: 16px;&quot;&gt;&amp;nbsp; IGLibCore&lt;/i&gt;&lt;/b&gt;&lt;/font&gt;&lt;/span&gt;&lt;/div&gt;&lt;div style=&quot;&quot;&gt;&lt;font face=&quot;Times New Roman&quot; style=&quot;font-size: 13px;&quot;&gt;&amp;nbsp; &lt;/font&gt;&lt;font face=&quot;Times New Roman&quot; style=&quot;font-size: 12px;&quot;&gt;Remarks&lt;/font&gt;&lt;/div&gt;" style="rounded=1;whiteSpace=wrap;html=1;align=left;verticalAlign=top;gradientColor=none;strokeWidth=2;fillColor=#FFFFCC;strokeColor=default;shadow=1;" parent="U46B-6vp6unZUhbUO82Z-3" vertex="1">
          <mxGeometry x="11" y="40" width="100" height="60" as="geometry" />
        </mxCell>
        <mxCell id="zRIL2eFRyF2cmr7uauDS-68" value="IGLib Module" style="text;html=1;align=left;verticalAlign=bottom;whiteSpace=wrap;rounded=0;" parent="U46B-6vp6unZUhbUO82Z-3" vertex="1">
          <mxGeometry x="121" y="80" width="120" height="20" as="geometry" />
        </mxCell>
        <mxCell id="zRIL2eFRyF2cmr7uauDS-69" value="&lt;div style=&quot;font-size: 10px;&quot;&gt;&lt;font color=&quot;#878787&quot;&gt;&amp;nbsp; IGLib legacy ass.&lt;/font&gt;&lt;/div&gt;&lt;div style=&quot;font-size: 16px;&quot;&gt;&lt;span style=&quot;background-color: initial;&quot;&gt;&lt;font face=&quot;Times New Roman&quot; color=&quot;#0000ff&quot; style=&quot;font-size: 16px;&quot;&gt;&lt;b style=&quot;&quot;&gt;&lt;i style=&quot;&quot;&gt;&amp;nbsp; IGLib&lt;/i&gt;&lt;/b&gt;&lt;/font&gt;&lt;/span&gt;&lt;/div&gt;&lt;div style=&quot;&quot;&gt;&lt;font face=&quot;Times New Roman&quot; style=&quot;font-size: 12px;&quot;&gt;&amp;nbsp; &lt;/font&gt;&lt;font face=&quot;Times New Roman&quot; style=&quot;font-size: 12px;&quot;&gt;Remarks&lt;/font&gt;&lt;/div&gt;" style="rounded=1;whiteSpace=wrap;html=1;align=left;verticalAlign=top;gradientColor=none;strokeWidth=2;fillColor=#D6E2F0;shadow=1;" parent="U46B-6vp6unZUhbUO82Z-3" vertex="1">
          <mxGeometry x="11" y="110" width="100" height="60" as="geometry" />
        </mxCell>
        <mxCell id="zRIL2eFRyF2cmr7uauDS-70" value="IGLib Legacy Module" style="text;html=1;align=left;verticalAlign=bottom;whiteSpace=wrap;rounded=0;" parent="U46B-6vp6unZUhbUO82Z-3" vertex="1">
          <mxGeometry x="121" y="150" width="120" height="20" as="geometry" />
        </mxCell>
        <mxCell id="zRIL2eFRyF2cmr7uauDS-72" value="&lt;div style=&quot;text-align: center; font-size: 10px;&quot;&gt;&lt;font color=&quot;#999999&quot;&gt;&amp;nbsp; IGLib legacy ns&lt;/font&gt;&lt;/div&gt;&lt;div style=&quot;&quot;&gt;&lt;span style=&quot;background-color: initial;&quot;&gt;&lt;font size=&quot;1&quot; face=&quot;Times New Roman&quot; style=&quot;&quot;&gt;&lt;b style=&quot;font-size: 14px;&quot;&gt;&amp;nbsp; IG.Vec&lt;/b&gt;&lt;/font&gt;&lt;/span&gt;&lt;/div&gt;&lt;div style=&quot;&quot;&gt;&lt;font face=&quot;Times New Roman&quot; style=&quot;font-size: 11px;&quot;&gt;&amp;nbsp; Remarks&lt;/font&gt;&lt;/div&gt;" style="rounded=1;whiteSpace=wrap;html=1;align=left;verticalAlign=top;strokeWidth=1;fillColor=#EBFFEC;" parent="U46B-6vp6unZUhbUO82Z-3" vertex="1">
          <mxGeometry x="10" y="240" width="100" height="50" as="geometry" />
        </mxCell>
        <mxCell id="zRIL2eFRyF2cmr7uauDS-73" value="&lt;div style=&quot;text-align: center; font-size: 10px;&quot;&gt;&lt;font color=&quot;#999999&quot;&gt;&amp;nbsp; IGLibCore nas&lt;/font&gt;&lt;/div&gt;&lt;div style=&quot;&quot;&gt;&lt;span style=&quot;background-color: initial;&quot;&gt;&lt;font size=&quot;1&quot; face=&quot;Times New Roman&quot; style=&quot;&quot;&gt;&lt;b style=&quot;font-size: 14px;&quot;&gt;&amp;nbsp; IG.Scripting&lt;/b&gt;&lt;/font&gt;&lt;/span&gt;&lt;/div&gt;&lt;div style=&quot;&quot;&gt;&lt;font face=&quot;Times New Roman&quot; style=&quot;font-size: 11px;&quot;&gt;&amp;nbsp; Remarks&lt;/font&gt;&lt;/div&gt;" style="rounded=1;whiteSpace=wrap;html=1;align=left;verticalAlign=top;strokeWidth=1;" parent="U46B-6vp6unZUhbUO82Z-3" vertex="1">
          <mxGeometry x="11" y="180" width="100" height="50" as="geometry" />
        </mxCell>
        <mxCell id="zRIL2eFRyF2cmr7uauDS-74" value="IGLib Namespace" style="text;html=1;align=left;verticalAlign=bottom;whiteSpace=wrap;rounded=0;" parent="U46B-6vp6unZUhbUO82Z-3" vertex="1">
          <mxGeometry x="121" y="210" width="120" height="20" as="geometry" />
        </mxCell>
        <mxCell id="zRIL2eFRyF2cmr7uauDS-78" value="Depends on" style="text;html=1;align=left;verticalAlign=bottom;whiteSpace=wrap;rounded=0;" parent="U46B-6vp6unZUhbUO82Z-3" vertex="1">
          <mxGeometry x="120" y="370" width="80" height="20" as="geometry" />
        </mxCell>
        <mxCell id="zRIL2eFRyF2cmr7uauDS-79" value="Uses" style="text;html=1;align=left;verticalAlign=bottom;whiteSpace=wrap;rounded=0;" parent="U46B-6vp6unZUhbUO82Z-3" vertex="1">
          <mxGeometry x="121" y="410" width="80" height="20" as="geometry" />
        </mxCell>
        <mxCell id="zRIL2eFRyF2cmr7uauDS-131" value="&lt;div style=&quot;font-size: 10px;&quot;&gt;&lt;font color=&quot;#000000&quot;&gt;&amp;nbsp; IGLib Application&lt;/font&gt;&lt;/div&gt;&lt;div style=&quot;&quot;&gt;&lt;span style=&quot;background-color: initial;&quot;&gt;&lt;font size=&quot;1&quot; face=&quot;Times New Roman&quot; style=&quot;&quot;&gt;&lt;b style=&quot;&quot;&gt;&lt;i style=&quot;font-size: 16px;&quot;&gt;&lt;font color=&quot;#0000ff&quot;&gt;&amp;nbsp; &lt;/font&gt;&lt;font color=&quot;#ffff33&quot;&gt;MyApp&lt;/font&gt;&lt;/i&gt;&lt;/b&gt;&lt;/font&gt;&lt;/span&gt;&lt;/div&gt;&lt;div style=&quot;&quot;&gt;&lt;font face=&quot;Times New Roman&quot; style=&quot;font-size: 13px;&quot;&gt;&amp;nbsp; &lt;/font&gt;&lt;font face=&quot;Times New Roman&quot; style=&quot;font-size: 12px;&quot;&gt;Remarks&lt;/font&gt;&lt;/div&gt;" style="rounded=1;whiteSpace=wrap;html=1;align=left;verticalAlign=top;strokeWidth=2;fillColor=#1ba1e2;strokeColor=#006EAF;shadow=1;fontColor=#ffffff;" parent="U46B-6vp6unZUhbUO82Z-3" vertex="1">
          <mxGeometry x="10" y="300" width="100" height="60" as="geometry" />
        </mxCell>
        <mxCell id="zRIL2eFRyF2cmr7uauDS-75" value="IGLib Legacy Namespace" style="text;html=1;align=left;verticalAlign=bottom;whiteSpace=wrap;rounded=0;" parent="U46B-6vp6unZUhbUO82Z-3" vertex="1">
          <mxGeometry x="120" y="270" width="150" height="20" as="geometry" />
        </mxCell>
        <mxCell id="zRIL2eFRyF2cmr7uauDS-80" value="Depends on External" style="text;html=1;align=left;verticalAlign=bottom;whiteSpace=wrap;rounded=0;" parent="U46B-6vp6unZUhbUO82Z-3" vertex="1">
          <mxGeometry x="120" y="390" width="150" height="20" as="geometry" />
        </mxCell>
        <mxCell id="zRIL2eFRyF2cmr7uauDS-132" value="Application" style="text;html=1;align=left;verticalAlign=bottom;whiteSpace=wrap;rounded=0;" parent="U46B-6vp6unZUhbUO82Z-3" vertex="1">
          <mxGeometry x="120" y="340" width="70" height="20" as="geometry" />
        </mxCell>
        <mxCell id="zRIL2eFRyF2cmr7uauDS-152" value="" style="endArrow=blockThin;html=1;rounded=0;edgeStyle=orthogonalEdgeStyle;elbow=vertical;curved=1;strokeWidth=2;strokeColor=#FFB366;endFill=1;shape=arrow;fillColor=#FFB366;" parent="U46B-6vp6unZUhbUO82Z-3" edge="1">
          <mxGeometry width="50" height="50" relative="1" as="geometry">
            <mxPoint x="12.000000000000114" y="440.28999999999996" as="sourcePoint" />
            <mxPoint x="111" y="440" as="targetPoint" />
            <Array as="points" />
          </mxGeometry>
        </mxCell>
        <mxCell id="zRIL2eFRyF2cmr7uauDS-153" value="Is Part of" style="text;html=1;align=left;verticalAlign=bottom;whiteSpace=wrap;rounded=0;" parent="U46B-6vp6unZUhbUO82Z-3" vertex="1">
          <mxGeometry x="120" y="430" width="60" height="20" as="geometry" />
        </mxCell>
        <mxCell id="zRIL2eFRyF2cmr7uauDS-104" value="&lt;div style=&quot;text-align: justify; font-size: 10px;&quot;&gt;&lt;font color=&quot;#999999&quot;&gt;&amp;nbsp; External package&lt;/font&gt;&lt;/div&gt;&lt;div style=&quot;&quot;&gt;&lt;span style=&quot;background-color: initial;&quot;&gt;&lt;font size=&quot;1&quot; face=&quot;Times New Roman&quot; style=&quot;&quot;&gt;&lt;b style=&quot;&quot;&gt;&lt;i style=&quot;font-size: 16px;&quot;&gt;&lt;font color=&quot;#0000ff&quot;&gt;&amp;nbsp;&lt;/font&gt; &lt;/i&gt;&lt;/b&gt;&lt;/font&gt;&lt;/span&gt;&lt;span style=&quot;background-color: initial; font-size: 14px;&quot;&gt;&lt;font face=&quot;Times New Roman&quot;&gt;&lt;b style=&quot;&quot;&gt;&lt;i style=&quot;font-size: 12px;&quot;&gt;AForge.NET&lt;/i&gt;&lt;/b&gt;&lt;/font&gt;&lt;/span&gt;&lt;/div&gt;&lt;div style=&quot;&quot;&gt;&lt;font face=&quot;Times New Roman&quot; style=&quot;font-size: 13px;&quot;&gt;&amp;nbsp; &lt;/font&gt;&lt;font face=&quot;Times New Roman&quot; style=&quot;font-size: 11px;&quot;&gt;Machine learning, image processing; legacy&lt;/font&gt;&lt;/div&gt;" style="rounded=1;whiteSpace=wrap;html=1;align=left;verticalAlign=top;gradientColor=none;strokeWidth=2;fillColor=#F7F7F7;strokeColor=default;shadow=1;" parent="1" vertex="1">
          <mxGeometry x="1160" y="610" width="130" height="80" as="geometry" />
        </mxCell>
        <mxCell id="zRIL2eFRyF2cmr7uauDS-200" value="" style="endArrow=blockThin;html=1;rounded=0;edgeStyle=orthogonalEdgeStyle;elbow=vertical;curved=1;strokeWidth=3;strokeColor=#3399FF;endFill=1;exitX=0.156;exitY=0.969;exitDx=0;exitDy=0;exitPerimeter=0;" parent="1" source="zRIL2eFRyF2cmr7uauDS-172" edge="1">
          <mxGeometry width="50" height="50" relative="1" as="geometry">
            <mxPoint x="1260" y="300" as="sourcePoint" />
            <mxPoint x="1260" y="420" as="targetPoint" />
            <Array as="points" />
          </mxGeometry>
        </mxCell>
        <mxCell id="U46B-6vp6unZUhbUO82Z-6" value="" style="group" vertex="1" connectable="0" parent="1">
          <mxGeometry x="730" y="230" width="580" height="430" as="geometry" />
        </mxCell>
        <mxCell id="zRIL2eFRyF2cmr7uauDS-134" value="&lt;div style=&quot;text-align: center; font-size: 10px;&quot;&gt;&lt;font color=&quot;#999999&quot;&gt;&amp;nbsp; IGLib legacy namespace&lt;/font&gt;&lt;/div&gt;&lt;div style=&quot;&quot;&gt;&lt;span style=&quot;background-color: initial;&quot;&gt;&lt;font size=&quot;1&quot; face=&quot;Times New Roman&quot; style=&quot;&quot;&gt;&lt;b style=&quot;font-size: 14px;&quot;&gt;&amp;nbsp; IG.Vec&lt;/b&gt;&lt;/font&gt;&lt;/span&gt;&lt;/div&gt;&lt;div style=&quot;&quot;&gt;&lt;font face=&quot;Times New Roman&quot; style=&quot;font-size: 11px;&quot;&gt;&amp;nbsp; Vector operations&lt;/font&gt;&lt;/div&gt;" style="rounded=1;whiteSpace=wrap;html=1;align=left;verticalAlign=top;strokeWidth=1;fillColor=#EBFFEC;" parent="U46B-6vp6unZUhbUO82Z-6" vertex="1">
          <mxGeometry x="230" y="250" width="140" height="50" as="geometry" />
        </mxCell>
        <mxCell id="zRIL2eFRyF2cmr7uauDS-136" value="&lt;div style=&quot;text-align: center; font-size: 10px;&quot;&gt;&lt;font color=&quot;#999999&quot;&gt;&amp;nbsp; IGLib legacy namespace&lt;/font&gt;&lt;/div&gt;&lt;div style=&quot;&quot;&gt;&lt;span style=&quot;background-color: initial;&quot;&gt;&lt;font size=&quot;1&quot; face=&quot;Times New Roman&quot; style=&quot;&quot;&gt;&lt;b style=&quot;font-size: 14px;&quot;&gt;&amp;nbsp; IG.Num&lt;/b&gt;&lt;/font&gt;&lt;/span&gt;&lt;/div&gt;&lt;div style=&quot;&quot;&gt;&lt;font face=&quot;Times New Roman&quot; style=&quot;font-size: 11px;&quot;&gt;&amp;nbsp; Numerical utilities&lt;/font&gt;&lt;/div&gt;" style="rounded=1;whiteSpace=wrap;html=1;align=left;verticalAlign=top;strokeWidth=1;fillColor=#EBFFEC;" parent="U46B-6vp6unZUhbUO82Z-6" vertex="1">
          <mxGeometry x="120" y="110" width="140" height="50" as="geometry" />
        </mxCell>
        <mxCell id="zRIL2eFRyF2cmr7uauDS-137" value="&lt;div style=&quot;text-align: center; font-size: 10px;&quot;&gt;&lt;font color=&quot;#999999&quot;&gt;&amp;nbsp; IGLib legacy namespace&lt;/font&gt;&lt;/div&gt;&lt;div style=&quot;&quot;&gt;&lt;span style=&quot;background-color: initial;&quot;&gt;&lt;font size=&quot;1&quot; face=&quot;Times New Roman&quot; style=&quot;&quot;&gt;&lt;b style=&quot;font-size: 14px;&quot;&gt;&amp;nbsp; IG.Mat&lt;/b&gt;&lt;/font&gt;&lt;/span&gt;&lt;/div&gt;&lt;div style=&quot;&quot;&gt;&lt;font face=&quot;Times New Roman&quot; style=&quot;font-size: 11px;&quot;&gt;&amp;nbsp; Matrix operations&lt;/font&gt;&lt;/div&gt;" style="rounded=1;whiteSpace=wrap;html=1;align=left;verticalAlign=top;strokeWidth=1;fillColor=#EBFFEC;" parent="U46B-6vp6unZUhbUO82Z-6" vertex="1">
          <mxGeometry x="260" y="180" width="140" height="50" as="geometry" />
        </mxCell>
        <mxCell id="zRIL2eFRyF2cmr7uauDS-138" value="&lt;div style=&quot;text-align: center; font-size: 10px;&quot;&gt;&lt;font color=&quot;#999999&quot;&gt;&amp;nbsp; IGLib legacy namespace&lt;/font&gt;&lt;/div&gt;&lt;div style=&quot;&quot;&gt;&lt;span style=&quot;background-color: initial;&quot;&gt;&lt;font size=&quot;1&quot; face=&quot;Times New Roman&quot; style=&quot;&quot;&gt;&lt;b style=&quot;font-size: 14px;&quot;&gt;&amp;nbsp; IG.IO&lt;/b&gt;&lt;/font&gt;&lt;/span&gt;&lt;/div&gt;&lt;div style=&quot;&quot;&gt;&lt;font face=&quot;Times New Roman&quot; style=&quot;font-size: 11px;&quot;&gt;&amp;nbsp; Input/output utilities&lt;/font&gt;&lt;/div&gt;" style="rounded=1;whiteSpace=wrap;html=1;align=left;verticalAlign=top;strokeWidth=1;fillColor=#EBFFEC;" parent="U46B-6vp6unZUhbUO82Z-6" vertex="1">
          <mxGeometry x="70" y="260" width="140" height="50" as="geometry" />
        </mxCell>
        <mxCell id="zRIL2eFRyF2cmr7uauDS-143" value="&lt;div style=&quot;font-size: 10px;&quot;&gt;&lt;font color=&quot;#999999&quot;&gt;&amp;nbsp; IGLib legacy namespace&lt;/font&gt;&lt;/div&gt;&lt;div style=&quot;&quot;&gt;&lt;span style=&quot;background-color: initial;&quot;&gt;&lt;font size=&quot;1&quot; face=&quot;Times New Roman&quot; style=&quot;&quot;&gt;&lt;b style=&quot;font-size: 14px;&quot;&gt;&amp;nbsp; IG.Parallel&lt;/b&gt;&lt;/font&gt;&lt;/span&gt;&lt;/div&gt;&lt;div style=&quot;&quot;&gt;&lt;span style=&quot;font-size: 11px; font-family: &amp;quot;Times New Roman&amp;quot;; background-color: initial;&quot;&gt;&amp;nbsp; Parallelization and concurrency&lt;/span&gt;&lt;br&gt;&lt;/div&gt;" style="rounded=1;whiteSpace=wrap;html=1;align=left;verticalAlign=top;strokeWidth=1;fillColor=#EBFFEC;" parent="U46B-6vp6unZUhbUO82Z-6" vertex="1">
          <mxGeometry x="300" y="110" width="150" height="50" as="geometry" />
        </mxCell>
        <mxCell id="zRIL2eFRyF2cmr7uauDS-144" value="&lt;div style=&quot;font-size: 10px;&quot;&gt;&lt;font color=&quot;#999999&quot;&gt;&amp;nbsp; IGLib legacy namespace&lt;/font&gt;&lt;/div&gt;&lt;div style=&quot;&quot;&gt;&lt;span style=&quot;background-color: initial;&quot;&gt;&lt;font size=&quot;1&quot; face=&quot;Times New Roman&quot; style=&quot;&quot;&gt;&lt;b style=&quot;font-size: 14px;&quot;&gt;&amp;nbsp; IG.Scripting&lt;/b&gt;&lt;/font&gt;&lt;/span&gt;&lt;/div&gt;&lt;div style=&quot;&quot;&gt;&lt;span style=&quot;font-size: 11px; font-family: &amp;quot;Times New Roman&amp;quot;; background-color: initial;&quot;&gt;&amp;nbsp; Scripting and dynamic compilation&lt;/span&gt;&lt;br&gt;&lt;/div&gt;" style="rounded=1;whiteSpace=wrap;html=1;align=left;verticalAlign=top;strokeWidth=1;fillColor=#EBFFEC;" parent="U46B-6vp6unZUhbUO82Z-6" vertex="1">
          <mxGeometry x="60" y="180" width="170" height="50" as="geometry" />
        </mxCell>
        <mxCell id="zRIL2eFRyF2cmr7uauDS-145" value="&lt;div style=&quot;text-align: center; font-size: 10px;&quot;&gt;&lt;font color=&quot;#999999&quot;&gt;&amp;nbsp; IGLib legacy namespace&lt;/font&gt;&lt;/div&gt;&lt;div style=&quot;&quot;&gt;&lt;span style=&quot;background-color: initial;&quot;&gt;&lt;font size=&quot;1&quot; face=&quot;Times New Roman&quot; style=&quot;&quot;&gt;&lt;b style=&quot;font-size: 14px;&quot;&gt;&amp;nbsp; IG.Util&lt;/b&gt;&lt;/font&gt;&lt;/span&gt;&lt;/div&gt;&lt;div style=&quot;&quot;&gt;&lt;span style=&quot;font-size: 11px; font-family: &amp;quot;Times New Roman&amp;quot;; background-color: initial;&quot;&gt;&amp;nbsp; Miscellaneous utilities&lt;/span&gt;&lt;br&gt;&lt;/div&gt;" style="rounded=1;whiteSpace=wrap;html=1;align=left;verticalAlign=top;strokeWidth=1;fillColor=#EBFFEC;" parent="U46B-6vp6unZUhbUO82Z-6" vertex="1">
          <mxGeometry x="140" y="330" width="140" height="50" as="geometry" />
        </mxCell>
        <mxCell id="zRIL2eFRyF2cmr7uauDS-146" value="&lt;div style=&quot;text-align: center; font-size: 10px;&quot;&gt;&lt;font color=&quot;#999999&quot;&gt;&amp;nbsp; IGLib legacy namespace&lt;/font&gt;&lt;/div&gt;&lt;div style=&quot;&quot;&gt;&lt;span style=&quot;background-color: initial;&quot;&gt;&lt;font size=&quot;1&quot; face=&quot;Times New Roman&quot; style=&quot;&quot;&gt;&lt;b style=&quot;font-size: 14px;&quot;&gt;&amp;nbsp; IG.IPC&lt;/b&gt;&lt;/font&gt;&lt;/span&gt;&lt;/div&gt;&lt;div style=&quot;&quot;&gt;&lt;span style=&quot;font-size: 11px; font-family: &amp;quot;Times New Roman&amp;quot;; background-color: initial;&quot;&gt;&amp;nbsp; Interprocess communication&lt;/span&gt;&lt;br&gt;&lt;/div&gt;" style="rounded=1;whiteSpace=wrap;html=1;align=left;verticalAlign=top;strokeWidth=1;fillColor=#EBFFEC;" parent="U46B-6vp6unZUhbUO82Z-6" vertex="1">
          <mxGeometry x="200" y="40" width="140" height="50" as="geometry" />
        </mxCell>
        <mxCell id="zRIL2eFRyF2cmr7uauDS-170" value="&lt;div style=&quot;text-align: center; font-size: 10px;&quot;&gt;&lt;font color=&quot;#999999&quot;&gt;&amp;nbsp; IGLib legacy namespace&lt;/font&gt;&lt;/div&gt;&lt;div style=&quot;&quot;&gt;&lt;span style=&quot;background-color: initial;&quot;&gt;&lt;font size=&quot;1&quot; face=&quot;Times New Roman&quot; style=&quot;&quot;&gt;&lt;b style=&quot;font-size: 14px;&quot;&gt;&amp;nbsp; IG.Crypto&lt;/b&gt;&lt;/font&gt;&lt;/span&gt;&lt;/div&gt;&lt;div style=&quot;&quot;&gt;&lt;font face=&quot;Times New Roman&quot; style=&quot;font-size: 11px;&quot;&gt;&amp;nbsp; Cryptographic operations&lt;/font&gt;&lt;/div&gt;" style="rounded=1;whiteSpace=wrap;html=1;align=left;verticalAlign=top;strokeWidth=1;fillColor=#EBFFEC;" parent="U46B-6vp6unZUhbUO82Z-6" vertex="1">
          <mxGeometry x="420" y="190" width="140" height="50" as="geometry" />
        </mxCell>
        <mxCell id="U46B-6vp6unZUhbUO82Z-5" value="" style="group" vertex="1" connectable="0" parent="U46B-6vp6unZUhbUO82Z-6">
          <mxGeometry width="580" height="430" as="geometry" />
        </mxCell>
        <mxCell id="zRIL2eFRyF2cmr7uauDS-142" value="" style="rounded=0;whiteSpace=wrap;html=1;fillColor=none;strokeColor=none;" parent="U46B-6vp6unZUhbUO82Z-5" vertex="1">
          <mxGeometry y="10" width="490.00000000000006" height="390" as="geometry" />
        </mxCell>
        <mxCell id="zRIL2eFRyF2cmr7uauDS-147" value="" style="curved=1;endArrow=none;html=1;rounded=0;endFill=0;dashed=1;shadow=0;entryX=0.122;entryY=0.872;entryDx=0;entryDy=0;entryPerimeter=0;strokeWidth=3;strokeColor=#B34618;" parent="U46B-6vp6unZUhbUO82Z-5" target="zRIL2eFRyF2cmr7uauDS-142" edge="1">
          <mxGeometry width="50" height="50" relative="1" as="geometry">
            <mxPoint x="60" y="350" as="sourcePoint" />
            <mxPoint x="70" y="372.27272727272725" as="targetPoint" />
            <Array as="points">
              <mxPoint x="110" y="410" />
              <mxPoint x="230" y="430" />
              <mxPoint x="360" y="400" />
              <mxPoint x="510" y="330" />
              <mxPoint x="580" y="250" />
              <mxPoint x="570" y="140" />
              <mxPoint x="510" y="80" />
              <mxPoint x="450" y="30" />
              <mxPoint x="340" />
              <mxPoint x="190" y="10" />
              <mxPoint x="80" y="70" />
              <mxPoint x="20" y="170" />
              <mxPoint x="20" y="290" />
            </Array>
          </mxGeometry>
        </mxCell>
      </root>
    </mxGraphModel>
  </diagram>
</mxfile>
